<?xml version="1.0" standalone="no"?>
<!DOCTYPE svg PUBLIC "-//W3C//DTD SVG 20010904//EN"
 "http://www.w3.org/TR/2001/REC-SVG-20010904/DTD/svg10.dtd">
<svg version="1.0" xmlns="http://www.w3.org/2000/svg"
 width="512.000000pt" height="512.000000pt" viewBox="0 0 512.000000 512.000000"
 preserveAspectRatio="xMidYMid meet">

<g transform="translate(0.000000,512.000000) scale(0.100000,-0.100000)"
fill="#2757B6" stroke="none">
<path d="M2645 4721 c-28 -12 -142 -122 -369 -354 -288 -294 -333 -336 -365
-341 -20 -4 -193 -22 -386 -42 -353 -35 -407 -46 -426 -84 -4 -8 -15 -46 -23
-85 -51 -224 -231 -407 -458 -464 -114 -29 -106 -9 -263 -614 -74 -285 -135
-536 -135 -558 0 -22 6 -54 14 -72 19 -47 573 -917 604 -950 48 -51 97 -70
173 -65 56 3 76 9 111 33 80 56 119 175 84 258 -7 18 -126 210 -263 427 -137
217 -252 400 -255 405 -5 9 95 411 104 421 2 2 170 -138 374 -312 203 -173
401 -334 441 -358 40 -23 105 -52 145 -64 40 -11 324 -71 630 -133 l558 -112
606 -486 605 -486 -1820 -5 c-1818 -5 -1820 -5 -1847 -26 -41 -30 -64 -65 -70
-106 -9 -53 25 -118 75 -146 l39 -22 2237 0 c2043 0 2240 1 2271 16 76 36 107
138 62 203 -52 76 -51 76 -329 79 l-249 3 25 33 c38 50 55 100 54 163 -1 61
-11 96 -44 152 -12 20 -205 182 -490 411 -258 207 -558 447 -665 533 -107 86
-210 164 -229 173 -30 15 -228 58 -713 155 -93 19 -168 36 -168 39 0 3 125 70
278 149 152 79 345 180 429 223 l151 79 462 -443 c255 -244 481 -455 503 -471
53 -36 110 -50 173 -44 67 7 120 35 171 89 48 53 67 103 67 179 1 114 8 106
-608 696 -630 602 -613 588 -739 581 -71 -4 -76 -6 -476 -215 l-403 -211 -227
191 c-124 105 -282 238 -350 296 l-125 105 255 27 c176 18 267 32 292 44 49
23 757 747 786 803 27 53 28 141 2 198 -47 102 -182 152 -286 105z"/>
<path d="M322 4400 c-83 -30 -134 -64 -195 -129 -110 -119 -151 -274 -112
-424 96 -368 549 -483 801 -203 164 180 160 455 -8 632 -62 65 -115 99 -199
125 -82 26 -215 25 -287 -1z"/>
</g>
</svg>
