<?xml version="1.0" standalone="no"?>
<!DOCTYPE svg PUBLIC "-//W3C//DTD SVG 20010904//EN"
 "http://www.w3.org/TR/2001/REC-SVG-20010904/DTD/svg10.dtd">
<svg version="1.0" xmlns="http://www.w3.org/2000/svg"
 width="1600.000000pt" height="1600.000000pt" viewBox="0 0 1600.000000 1600.000000"
 preserveAspectRatio="xMidYMid meet">

<g transform="translate(0.000000,1600.000000) scale(0.100000,-0.100000)"
fill="#2757B6" stroke="none">
<path d="M7739 15795 c-83 -21 -163 -59 -269 -130 -126 -84 -218 -162 -438
-368 -210 -198 -4529 -4537 -4648 -4670 -102 -114 -189 -235 -228 -317 -40
-85 -46 -170 -17 -218 48 -75 179 -122 401 -142 69 -6 552 -10 1213 -10 l1097
0 0 -2487 c0 -2088 3 -2505 15 -2594 113 -855 787 -1499 1650 -1579 151 -14
2582 -13 2735 1 667 61 1253 485 1511 1095 57 134 92 248 121 399 l22 110 3
2528 3 2527 1084 0 c657 0 1134 4 1212 10 341 28 463 106 424 270 -16 66 -95
196 -194 318 -81 98 -4135 4165 -4623 4637 -294 284 -423 397 -563 490 -195
131 -348 169 -511 130z"/>
<path d="M0 3225 c0 -1260 2 -1357 36 -1523 71 -348 246 -674 494 -922 305
-305 689 -486 1124 -529 153 -15 12296 -16 12452 0 313 30 629 147 884 327
123 86 346 309 432 432 180 255 297 571 327 884 7 71 11 548 11 1348 l0 1238
-605 0 -604 0 -4 -1257 c-3 -1144 -4 -1263 -20 -1313 -54 -178 -168 -316 -318
-388 -46 -22 -109 -46 -139 -53 -46 -12 -1069 -14 -6195 -14 -5832 0 -6143 1
-6204 18 -201 55 -362 206 -429 402 l-27 80 -3 1263 -2 1262 -605 0 -605 0 0
-1255z"/>
</g>
</svg>
