<svg id="Layer_1" data-name="Layer 1" xmlns="http://www.w3.org/2000/svg" viewBox="0 0 1324.61 903.9"><defs><style>.cls-1{fill:#2271ff;opacity:0.1;isolation:isolate;}.cls-2{fill:#251f49;}.cls-3{fill:#f39b86;}.cls-4{fill:#d06869;}.cls-5{fill:#f5b09c;}.cls-6{fill:#6c67ab;}.cls-7{fill:#5c58a2;}.cls-8{fill:#f2ded9;}.cls-9{fill:#c6c5db;}.cls-10{fill:#ec6b6c;}.cls-11{fill:#53110f;}.cls-12{fill:#f6eeeb;}.cls-13{fill:#7c82be;}.cls-14{fill:#53a8dd;}.cls-15{fill:#faf7fb;}.cls-16{fill:#a6add7;}.cls-17{fill:#b2bce0;}.cls-18{fill:#7d82be;}.cls-19{fill:#f9d4e6;}.cls-20{fill:#e6bdda;}.cls-21{fill:#faddec;}.cls-22{fill:#4ba2da;}.cls-23{fill:#f6eff3;}.cls-24{fill:#7a7db7;}.cls-25{fill:#fff8f6;}.cls-26{fill:#fff9f8;}.cls-27{fill:#6ba3d8;}.cls-28{fill:#4b509d;}.cls-29{fill:#f8f3f9;}.cls-30{fill:#90a8d7;}</style></defs><title>44444444</title><circle class="cls-1" cx="12" cy="12" r="12"/><path class="cls-2" d="M584.34,643.34c.35.54.7,1.12,1,1.7q-4.25,3.27-8.56,6.45c.6-.61,1.18-1.23,1.78-1.85,1.1-1.15,2.18-2.31,3.26-3.5.63-.66,1.23-1.35,1.85-2C583.88,643.84,584.13,643.59,584.34,643.34Z" transform="translate(367.13 106.65)"/><path class="cls-2" d="M760.42,343.37a430.63,430.63,0,0,1-11.76,62.25L748,405c-4.2-4.12-5.3-20-7.13-25.78-.29-.93-.6-1.87-.91-2.78v0l-.19-.56c-.94-2.77-1.89-5.49-2.87-8.17-.14-.4-.29-.79-.43-1.19-1-2.68-2-5.34-3.12-8-.15-.35-.29-.71-.44-1.06-1-2.47-2-4.92-3.13-7.4,6.21,3.64,17.22.13,22.83-2.41A58.11,58.11,0,0,0,760.42,343.37Z" transform="translate(367.13 106.65)"/><path class="cls-3" d="M539.16,680.07a164.33,164.33,0,0,0,23-15.48l0,0c.68-.54,1.34-1.12,2-1.68s1.4-1.14,2.09-1.73c1.5-1.27,3-2.58,4.41-3.9l1.17-1.06c1.67-1.55,3.29-3.14,4.89-4.76.61-.61,1.2-1.24,1.8-1.86,1.1-1.15,2.18-2.3,3.25-3.48.62-.68,1.24-1.37,1.85-2.06l.68-.76a17.2,17.2,0,0,1,2.08,4.37c3.9,12.95-6.66,37.73-10,50.32-6.22,23.16-17,45.05-21.69,67.72-2.49,12,1.41,22.45,8.82,31.51H868.1a108.93,108.93,0,0,0,6.77-17.11A293,293,0,0,0,885,732c25-5.58,46-23.37,54.95-53.08a168.35,168.35,0,0,0,6.87-56.09c-.07-1.41-.19-2.81-.29-4.22h0c0-.5-.1-1-.14-1.5-.08-1-.17-2-.26-3-.13-1.26-.27-2.52-.41-3.78-.12-1-.23-1.91-.36-2.87-.19-1.43-.42-2.85-.64-4.27-.13-.78-.24-1.56-.38-2.33q-.57-3.31-1.27-6.6c-1.6-7.45-3.58-15.52-7.82-22a110.67,110.67,0,0,0,12.25-10c15-14.22,11.25-15.87,1-32.76-14.89-24.56-25-51.58-34.87-78.33-15.53-41.85-50.72-75.6-98.1-58.61-11.42,4.09-21.92,11.5-32.65,16.89a50.47,50.47,0,0,1-5.44,2.32c-10.25-1.24-21.65.91-29.49-6.73-4.19-4.11-5.28-20-7.11-25.76-.31-.95-.62-1.87-.93-2.8h0c-.06-.2-.13-.38-.2-.57q-1.38-4.15-2.86-8.17l-.45-1.18q-1.5-4-3.1-8c-.15-.36-.3-.71-.44-1.07-1-2.46-2-4.92-3.13-7.38,6.22,3.62,17.21.11,22.84-2.42,16.8-7.58,32.37-23.73,30.83-43.13,6.36-5.34,9.12-17.13,10.52-25a41.66,41.66,0,0,0,.32-14.56c1.07-1.58,2.17-3.13,3.33-4.63,9.87-12.74,26.24-27.13,42.31-31-1.29-3.84-21.54-14.08-24.38-9.93,7.76-11.32,16.38-22.11,18.6-36.63-7.37,1.33-13.55,7.78-21.62,6.14-.73-12-.53-23-4-34.67-2.69-9.06-7.71-17.58-9.78-26.73-3.68,14.7-5.54,31-10.6,45.6a197.3,197.3,0,0,0-25.69-53.63c-11.73-17.22-18.21-36-26.08-55.1-.4-1-.81-2-1.22-2.94-7.69,14.33-13.33,34.25-10.54,50.79-22.29-20.17-33.93-46.27-38.8-78.3-8.33,4.46-16.21,12.68-22,20.64C654,67.92,653.05,78.71,651.91,94.89c-6.46-1.78-13.12-8.46-19.82-11.35-7.23-3.11-14.7-6.5-22.35-7.84-12.92-2.25-25.07,2.3-37.28,2.53,5.82,9.37,11.13,26.81,8.53,38.28-6.19-5-12.26-11.7-18-17.63-1.66,17.26-5.68,38.27-1.37,56.15a35,35,0,0,0-3.71.36c-5.05.78-9.93,1.53-13.92,4.94-7.86,6.72-13.61,18.67-16.63,28.31-2.27,7.27-5.48,13.64-7.92,20.79-4.62,13.52-6.27,31.44,7,40.83,9.08,6.42,20.93,9.86,31.67,13.23q-.93,6.79-2,13.56a11.54,11.54,0,0,0-3.13,7.37,13.27,13.27,0,0,0,.82,5.12c-.05.23-.08.45-.13.68-5.08,23.92-7.84,50.19,3.14,72.95,17.2,35.64,67.41,44.88,105,34.44l.58.8.06.08c.44.62.87,1.22,1.28,1.81l.13.19,1.16,1.68.11.17c.37.54.73,1.06,1.05,1.55l0,0,.88,1.34.08.12.68,1.07.1.16c.19.3.35.56.47.77l0,.09a5.35,5.35,0,0,1,.26.48c.28.67.55,1.34.83,2,.08.2.15.41.23.62.19.48.38,1,.56,1.47l.26.75c.17.46.33.93.48,1.4.09.26.17.52.25.78.15.47.29.95.43,1.43.08.26.15.52.22.78.14.49.26,1,.38,1.48l.18.74c.12.54.22,1.08.33,1.62,0,.2.08.41.11.61.12.7.22,1.4.31,2.1l0,.14c.08.76.14,1.53.18,2.3a25.31,25.31,0,0,1-1.67,10.67c-.49.11-1,.24-1.49.33-15.13,3-31.75,1.23-47,6.16-27.67,9-38.7,33-47.38,58.19-11.27,32.76-34.3,58.33-53.24,86.76,3.65,3.41,7.17,6.9,10.65,10.41-.81,1-1.63,2-2.47,3l-.27.32q-1.47,1.71-3,3.33l-.21.22c-1.06,1.14-2.14,2.23-3.22,3.28-13,12.58-27.49,18.59-41,6.52-27.7-24.82-11.74-69.56-8.39-103.27,6.89-10.59,8.74-24.53,14.31-36s16-22.75,27.22-28.89,28.76-7.44,35.9-19.68c6-10.36-3.07-24.65-14.37-26.78-15-2.82-29.16,3.88-40.61,13-4.33,3.46-8.28,8.21-13.71,9.88-9.69,3-17-7-21.29-14.41-7.38-12.66-9.79-27.57-11.22-42-1.47-14.82-.77-29.71-.05-44.54q.2-4,.36-8c.51-13,7.65-49.3-13.88-48.65-22.94.69-31.27,32.76-29,51.66,1.86,15.65,5.84,29.1,10.94,43.8,3.55,10.24,7.56,20.9,7.62,31.89.07,13.88-7,10.17-17.95,13.74-25.61,8.33-55.44,38-46.34,67.62,4.73,15.4,20.11,13.21,33.1,13.1-4.17,15.87.92,30.52,17.43,38.15a50,50,0,0,0,11.48,3.63,227.71,227.71,0,0,0-3.66,23.82c-2.7,26.2-4.71,53.14,4.37,78.41,17.63,49,66.1,74.55,113.62,48.19" transform="translate(367.13 106.65)"/><path class="cls-3" d="M562.15,664.6a164.59,164.59,0,0,1-23,15.46,87.28,87.28,0,0,1-16.27,7.05,632.11,632.11,0,0,0,53.88-35.62c-1.6,1.62-3.22,3.2-4.91,4.75-.37.36-.77.71-1.16,1.06-1.46,1.34-2.91,2.64-4.41,3.91-.68.58-1.39,1.17-2.09,1.73s-1.33,1.14-2,1.68Z" transform="translate(367.13 106.65)"/><path class="cls-4" d="M562.16,664.59l0,0c.68-.54,1.35-1.12,2-1.68s1.4-1.14,2.09-1.73c1.5-1.27,3-2.58,4.41-3.9l1.17-1.06c1.67-1.55,3.29-3.14,4.89-4.76.61-.61,1.2-1.24,1.8-1.86,1.1-1.15,2.18-2.3,3.25-3.48.62-.68,1.24-1.37,1.85-2.06l.68-.76c-5.38-8.25-17.4-13.12-24.38-19-9.52-8-17.92-16.89-26.56-25.6-.81,1-1.63,2-2.47,3l-.27.32q-1.47,1.71-3,3.33l-.21.22c-1.06,1.14-2.14,2.23-3.22,3.28l0,0C534.18,629.16,546.62,648.52,562.16,664.59Z" transform="translate(367.13 106.65)"/><path class="cls-5" d="M420.81,278.23c-7.77,7.15-11.45,16.36-11.52,27.06-.08,11.13,7.27,21.74,19.13,14.53,15.07-9.17,14.77-47.39-7.61-41.59" transform="translate(367.13 106.65)"/><path class="cls-5" d="M501.52,442.41c5.14-1,9.15-4,13.54-6.74,6.8-4.16,17.38-9.53,13.62-19.41-1.16-3-4.42-4.28-7.46-4.82a23.81,23.81,0,0,0-21.25,7c-2.45,2.48-5.41,8-6.66,13.11-1.59,6.55-.4,12.51,8.21,10.86" transform="translate(367.13 106.65)"/><path class="cls-4" d="M387.1,476.53c5.18,1,6.73,7.22,11.35,9.51,5,2.46,10.11-.18,13.35-4.15a30,30,0,0,0,6.23-13,11.93,11.93,0,0,0,4.18-.63c4-1.4,7.19-4.45,9.68-7.83,4.92-6.69,7-16.5,2.59-24a19.53,19.53,0,0,0-5.41-5.75c-.89-.65-1.83-1.21-2.77-1.8a14.73,14.73,0,0,1-1.44-1l-.15-.33a24.4,24.4,0,0,1,0-3.42c0-2.76-.25-5.57.44-8.26,1.32-5.2-6.71-7.42-8-2.22-1,4.1-.77,8.47-.8,12.67,0,3.63,1.15,6.52,4.12,8.67,2.54,1.84,5.39,3.05,7,5.92s1.29,6.27.39,9.32a18.13,18.13,0,0,1-4.59,7.57c-1.55,1.56-4,3.56-6.36,2.51-1.26-.57-1.58-1.74-2.07-2.87a10.22,10.22,0,0,0-2.66-3.86c-3.29-2.86-8.28-3-12.08-5C393,444.86,388,436.38,391,428.47c.8-2.11-.88-4.57-2.9-5.13a4.27,4.27,0,0,0-5.13,2.91c-3.32,8.82.4,18.91,7,25.21,3.77,3.62,8.38,5.66,13.3,7.22,1.48.46,3.05.57,3.88,1.82,1,1.5,1.36,3.36,2.72,4.84l.44.4a5.55,5.55,0,0,0-.23,1.09c.12-1.12-.11.48-.16.68-.13.56-.29,1.1-.46,1.64a17.47,17.47,0,0,1-1,2.57,19.32,19.32,0,0,1-3.76,5.68,10,10,0,0,1-1.73,1.22l-.27.09h-.24c-1.84-1.26-3.36-3.53-5-5.42a14.52,14.52,0,0,0-7.72-4.73c-3.17-.72-6.23-1.07-9-2.83-3.37-2.12-8.7-8.28-7.12-12.12.86-2.08-.93-4.58-2.91-5.12-2.39-.66-4.26.82-5.12,2.91-2.38,5.75,1.75,12.22,5.29,16.49,4.33,5.22,9.87,7.34,16.33,8.64" transform="translate(367.13 106.65)"/><path class="cls-4" d="M432.57,486.06a64.86,64.86,0,0,0,2.58,13.08c1.38,4.3,3.49,8.33,4.34,12.8,1,5.26,9,3,8-2.22-.77-4-2.54-7.68-3.9-11.51a53.85,53.85,0,0,1-2.73-12.15,42.59,42.59,0,0,1,3.27-21.7,59.23,59.23,0,0,1,12.28-17.87c5.26-5.32,12.14-8.4,17.94-13,1.75-1.41,1.46-4.42,0-5.89-1.74-1.74-4.13-1.41-5.89,0-3,2.37-6.37,4.19-9.53,6.29a54.36,54.36,0,0,0-9.57,7.94,67.36,67.36,0,0,0-13.18,20.14,49.45,49.45,0,0,0-3.64,24.13" transform="translate(367.13 106.65)"/><path class="cls-6" d="M560,624.33c7,5.88,19,10.75,24.38,19a17.2,17.2,0,0,1,2.08,4.37c3.9,12.95-6.66,37.73-10,50.32-6.22,23.16-17,45.05-21.69,67.72-2.49,12,1.41,22.45,8.82,31.51H695.34c3.79-1.43,7.56-2.89,11.32-4.43,14.69-6,30-13.76,42.94-22.83,7.2-5,49.78-39,29.93-48.5-10-4.78-28.08.17-38.51.48-13.75.42-27.86.11-41.17-3.45-19.75-5.28-14.35-17.4.76-25.39,12.83-6.78,26.9-13.14,37.46-23.1a191.23,191.23,0,0,0,16.11-17.44c-.38-.59-.76-1.17-1.13-1.77-17,4.35-36.25-2-53.73,7-14.91,7.69-28.29,20.5-38.75,33.37-7.69,9.45-20.23,15.55-23.13-2.53-3-19,23.37-34,32.85-47.8,16.94-24.68-20.59-15.6-32.08-13.7-11,1.82-22.56,4.73-33.64,3.34-11.52-1.45-27.94-5.09-32.15-17.68-5.65-16.88,12-21.28,24.47-20.12,14.37,1.35,28.78,2.64,43.23,2.45,6.64-.09,19.32,1,25.27-2,13.64-6.79-2.5-13.95-9.45-15.37-11.05-2.27-22.54-3.7-33.21-7.49-12.52-4.44-51.52-29.48-31.35-45.3,5.83-4.58,12.34.25,17.9,3.06,9.39,4.73,26.72,18.53,37.91,15.49-9.51-5.56-21.34-15-24.82-25.9-3.08-9.64,1.61-26.59,14.8-20.94,8.46,3.63,14.45,17.22,20.67,24a254,254,0,0,0,25,23.11c13.2,10.91,28,20.57,43.66,27.34,4.39,1.9,8.87,3.48,13.34,5.09,7.09,2.56,14.13,5.22,20.64,9.4a44.6,44.6,0,0,1,16.13,17.57c2.2,2.75,4.38,5.68,6.57,8.73a111.1,111.1,0,0,0,11.68-32.85c5.61-29.59.16-51.35-31.25-57.16-18.22-3.37-36.91-.53-55.31-1.88-20.18-1.48-47.92-.91-60.95-19.54-11.36-16.24-2.27-33.84,12.28-43,2.9-5.9,6.82-11,10.68-17.43a21.61,21.61,0,0,0,1.57-3.21c-.49.11-1,.24-1.49.33-15.13,3-31.75,1.23-47,6.16-27.67,9-38.7,33-47.38,58.19-11.27,32.76-34.3,58.33-53.24,86.76,3.65,3.41,7.17,6.9,10.65,10.41C542.05,607.44,550.45,616.3,560,624.33Z" transform="translate(367.13 106.65)"/><path class="cls-7" d="M699.85,718.52c13.31,3.56,27.42,3.87,41.17,3.45,10.43-.31,28.47-5.26,38.51-.48C799.38,731,756.8,765,749.6,770c-13,9.07-28.25,16.8-42.94,22.83-3.76,1.54-7.53,3-11.32,4.43H868.1a108.93,108.93,0,0,0,6.77-17.11A293,293,0,0,0,885,732c-18.83,4.18-40,1.47-60.06-8.33-24.13-11.76-41.48-32.47-57.81-53.12-4.15-5.25-8.67-11.37-12.9-17.93A191.23,191.23,0,0,1,738.07,670c-10.56,10-24.63,16.32-37.46,23.1C685.5,701.12,680.1,713.24,699.85,718.52Z" transform="translate(367.13 106.65)"/><path class="cls-7" d="M794.4,448c-10.1,28.83-31.53,44.72-59.68,52.74-23.75,6.77-45.52,8.67-68-3.42-12.51-6.73-13.42-13.11-11.2-27.21a42.93,42.93,0,0,1,4-12.55c-14.55,9.11-23.64,26.71-12.28,43,13,18.63,40.77,18.06,60.95,19.54,18.4,1.35,37.09-1.49,55.31,1.88,31.41,5.81,36.86,27.57,31.25,57.16a111.1,111.1,0,0,1-11.68,32.85c18.88,26.28,38.22,61,71.61,59.62,7.59-.31,14.46-3.61,18.55-10.14,4.28-6.81,5-15,5.85-22.79s-1.35-16.14-2.36-23.88l-.07-.44a18.86,18.86,0,0,0-.5-2.42c-.29-1.43-.6-2.86-.94-4.29a75.07,75.07,0,0,1,7.55-4.39,2.42,2.42,0,0,0,1.27-.46c3.77-2.86,8.11-4.79,12.1-7.3,4.55-2.84,9.12-5.63,13.78-8.29,3.27-1.88,6.64-3.63,9.87-5.59a4.52,4.52,0,0,0,1.36-.74c.56-.44,1.13-.86,1.71-1.25l.1-.07,0,0c4-2.7,8.35-4.56,12.07-7.43l.09.16a110.67,110.67,0,0,0,12.25-10c15-14.22,11.25-15.87,1-32.76-14.89-24.56-25-51.58-34.87-78.33-15.53-41.85-50.72-75.6-98.1-58.61-11.42,4.09-21.92,11.5-32.65,16.89a50.47,50.47,0,0,1-5.44,2.32c5.07.62,9.85,2.05,13.78,5.92C799.49,425.73,797.91,438,794.4,448ZM854.87,466c12.68,5.31,20.83,17.93,29.19,28.08a197.29,197.29,0,0,1,21,31.67c5.62,10.56,10.21,19.35,6.18,31.34-3.49,10.36-12,17.73-19.64,25.28-4.51,4.46-11.63,10.4-18.6,9.29-4.48-.71-6.81-4.81-8.34-9.06-.65-1.82-1.16-3.67-1.63-5.29-3.17-11-6.78-21.91-9.65-33-3.57-13.74-6.68-27.66-8.87-41.7C843.35,495.39,837.07,458.57,854.87,466Z" transform="translate(367.13 106.65)"/><path class="cls-4" d="M718.76,397.28c8.24-6.18,14.62-13.48,21.15-20.89h0c-.06-.2-.13-.38-.2-.57q-1.38-4.15-2.86-8.17c-.15-.39-.3-.78-.44-1.18-1-2.68-2-5.33-3.11-8-.15-.36-.3-.71-.44-1.07q-1.53-3.71-3.14-7.39a7.79,7.79,0,0,1-1.55-1.13,8,8,0,0,1-1.27-1.55C714,365.81,697.8,381.13,679.37,390.8a89.69,89.69,0,0,1-17.53,6.81l.58.8.06.08c.44.62.87,1.22,1.28,1.81l.13.19,1.16,1.68.11.17c.37.54.73,1.06,1.05,1.55l0,0,.88,1.34.08.12.68,1.07.1.16c.19.3.35.56.47.77l0,.09a5.35,5.35,0,0,1,.26.48c.28.67.55,1.34.83,2,.08.2.15.41.23.62.19.48.38,1,.56,1.47l.26.75c.17.46.33.93.48,1.4.09.26.17.52.25.78.15.47.29.95.43,1.43.08.26.15.52.22.78.14.49.26,1,.38,1.48l.18.74q.18.81.33,1.62c0,.2.08.41.11.61.12.7.22,1.4.31,2.1l0,.14c.08.76.14,1.53.18,2.3v0C689.49,418.5,704.24,408.58,718.76,397.28Z" transform="translate(367.13 106.65)"/><path class="cls-8" d="M737.33,82.57c2.08,11.46,3.7,23.05,6.3,34.4a140.84,140.84,0,0,0,14.74,37.48c-8.42-5.82-22.62-5.67-32.57-8.14-13.32-3.32-32.46-7.49-40.68-19.33-1.15,8.25,2.53,18.75,6.7,27-4.25-5.5-10.94-8.44-18-10.42-22.14-6.26-46.89-8.45-67.58.66,12.6,8.31,26.12,14,37.71,24.11.88.77,1.74,1.57,2.62,2.35q7.67,2,15.29,4.2c9.49,2.74,18.84,5.87,28.26,8.84,9,2.83,18,5.57,26.88,8.76a2.36,2.36,0,0,1,1.43,3c.91.39,1.79.81,2.66,1.24,3.89,1.31,8,3.35,9.42,3.86,8.78,3,19.3,8.8,26.71,16.22,8.78,5.55,15.12,12.77,22.08,21a99.94,99.94,0,0,1,6.38,8.37c4.57,6.73,7.44,12.41,8.52,18.74,1.07-1.58,2.17-3.13,3.33-4.63,9.87-12.74,26.24-27.13,42.31-31-1.29-3.84-21.53-14.08-24.38-9.93,7.76-11.32,16.38-22.11,18.6-36.63-7.37,1.33-13.55,7.78-21.62,6.14-.73-12-.53-23-4-34.67-2.69-9.06-7.71-17.58-9.78-26.73-3.68,14.7-5.54,31-10.6,45.6a197,197,0,0,0-25.69-53.63c-11.73-17.22-18.21-36-26.08-55.1C736.34,70.4,736.23,76.49,737.33,82.57Z" transform="translate(367.13 106.65)"/><path class="cls-9" d="M779.35,237.81c-7-8.25-13.3-15.47-22.08-21-7.41-7.42-17.93-13.2-26.71-16.22-1.47-.51-5.53-2.55-9.42-3.86a41.84,41.84,0,0,1,5.9,3.49c9,6.55,7.69,22.29,6.16,31.68-1.64,10.14-5.64,20.23-8.62,30.09a124.84,124.84,0,0,1-9.2,23.35c-8.17,15-23.37,14.09-38.38,12.3-2.39-.28-4.77-.69-7.14-1.16l-.2.41c2.35.66,4.74,1.36,7.17,2.08l5,1.47c2.66.78,5.36,1.56,8.08,2.29,2,.55,4,1.06,6.08,1.55,2.21.53,4.43,1,6.66,1.47,1.39.26,2.77.51,4.16.73,2.83.45,5.66.79,8.5,1a63.82,63.82,0,0,0,22.24-2c7.5-2.14,13.07-7.78,17.15-14.55a28.63,28.63,0,0,1,11.56-3.48c8.16-.48,14.65,4.24,16.45,12.36a34.37,34.37,0,0,1,.69,4.73c6.36-5.34,9.12-17.13,10.52-25a41.66,41.66,0,0,0,.32-14.56c-1.08-6.33-4-12-8.52-18.74A99.94,99.94,0,0,0,779.35,237.81Z" transform="translate(367.13 106.65)"/><path class="cls-10" d="M684.53,314.62c3.26,2.8,7.66,4.29,11.85,2.83,4.91-1.7,7.31-6.22,6.44-11.24l-.16-.48c-2.23-.44-4.45-.94-6.66-1.47a4.56,4.56,0,0,0-1.21,4.16c.07.45-.13.52-.54.93.17-.17-.31.14-.52.21a1.94,1.94,0,0,1-1.2.14c.53,0-1-.32-.68-.18a8.17,8.17,0,0,1-1.49-.85l-.8-.76-.09-.12-.33-.55,0-.08-.16-.55-.05-.15,0-.46c0-.2.09-.81.09-.93.09-.37.18-.75.3-1.11l0-.12a5.59,5.59,0,0,1,.3-.6l.32-.53c-2.72-.73-5.42-1.51-8.08-2.29C679.81,305.25,680.12,310.84,684.53,314.62Z" transform="translate(367.13 106.65)"/><path class="cls-10" d="M707.19,312.06l-.08.87c-.06.42-.14.84-.24,1.25s-.26.93-.4,1.39c-.07.2-.14.4-.22.6l-.09.18a18.91,18.91,0,0,1-1.27,2.17l0,0-.35.41c-.33.36-.67.71-1,1.05l-.72.61-.61.43a18.74,18.74,0,0,1-2.38,1.28l-.62.22c-.36.13-.74.24-1.11.35s-.87.23-1.31.32l-1.12.2-1,.09c-.4,0-.81,0-1.21,0a29.18,29.18,0,0,1-3-.14h0l-.63-.1-1.21-.25c-1-.24-1.93-.55-2.88-.88l-.35-.1-.3-.16c-.37-.18-.75-.35-1.12-.55a24.49,24.49,0,0,1-2.58-1.59l-.3-.19-.27-.26c-.36-.32-.72-.63-1.06-1s-.6-.6-.88-.91l-.48-.55-.11-.13,0,0a15.39,15.39,0,0,1-3-12.16,23.22,23.22,0,0,1,1.55-5.61c-2.43-.72-4.82-1.42-7.17-2.08l.2-.41-1-.18a29.25,29.25,0,0,0-1.44,4.86c-1.31,6.39-.74,12.95,2.76,18.56,5.82,9.34,17.28,13.53,27.89,11.71a20.8,20.8,0,0,0,17.32-23c0-.34-.07-.67-.12-1-2.84-.2-5.67-.54-8.5-1A21.52,21.52,0,0,1,707.19,312.06Zm-.93,4.08" transform="translate(367.13 106.65)"/><path class="cls-4" d="M561.58,299.87c5.75,4.76,12.6,7.7,18.9,11.6,4.56,2.83,8.75-4.37,4.2-7.19-6.26-3.88-13.51-6.64-18.88-11.79-2-1.9-4.26-4.47-4.46-7.29-.12-1.83,1.09-3.21,3.11-4.12,3-1.34,6.41-1.36,9.61-1.61a31.94,31.94,0,0,0,11.36-2.88c7.05-3.32,12.42-9.55,16.58-16a3.89,3.89,0,0,0,.67-2.3,10,10,0,0,0-7.8-2l-.06.07c-3.34,5.15-7.6,10.16-13.25,12.82s-12.19,1.53-18.15,3.39a16.43,16.43,0,0,0-7.25,4.43,11.54,11.54,0,0,0-3.13,7.37,13.27,13.27,0,0,0,.82,5.12,24.85,24.85,0,0,0,7.73,10.33" transform="translate(367.13 106.65)"/><path class="cls-11" d="M639.74,320.33c1.73-.06,3.48-.11,5.2-.1C643.22,320.22,641.47,320.27,639.74,320.33Z" transform="translate(367.13 106.65)"/><path class="cls-11" d="M621.44,347.46c10.18-2.67,25.5-3.43,35.95-1.68l2,.34a21.28,21.28,0,0,0,3-12c-5.82,3.45-15.19,5.65-18.9,6.14-14.58,1.89-29.4,2.29-43.94-1.21-10.23-2.45-21.45-7.82-24.54-17.79a10.63,10.63,0,0,1,.54-1.46,7.34,7.34,0,0,1,2.92-3.45,9.84,9.84,0,0,1,5.51-1.2,9.9,9.9,0,0,0-5.52,1.2,7.38,7.38,0,0,0-2.91,3.45,9.47,9.47,0,0,0-.54,1.46c-3.14,10.63,7.93,26.32,15.46,32.23a46.19,46.19,0,0,0,6.07,4.06l1.87-.82C607.17,352.8,612.21,349.87,621.44,347.46Z" transform="translate(367.13 106.65)"/><path class="cls-12" d="M575.59,319.78a10.63,10.63,0,0,0-.54,1.46c3.09,10,14.31,15.34,24.54,17.79,14.54,3.5,29.36,3.1,43.94,1.21,3.71-.49,13.08-2.69,18.9-6.14h0a18.84,18.84,0,0,0-.72-4c-2.49-8.37-9.33-9.8-16.77-9.88-1.72,0-3.47,0-5.2.1a245.14,245.14,0,0,1-42.36-2.64c-3.72-.53-8.88-2.42-13.36-2.56a9.84,9.84,0,0,0-5.51,1.2A7.34,7.34,0,0,0,575.59,319.78Z" transform="translate(367.13 106.65)"/><path class="cls-10" d="M659.41,346.12l-2-.34c-10.45-1.75-25.77-1-35.95,1.68-9.23,2.41-14.27,5.34-23,9.25l-1.87.82c12.53,7.05,27.22,7.76,41.39,4.55A35.37,35.37,0,0,0,659.41,346.12Z" transform="translate(367.13 106.65)"/><path class="cls-4" d="M739,335.05a4.24,4.24,0,0,0,5.12-2.91,34.69,34.69,0,0,1,1.32-4.24l.36-.94.06-.16.12-.25c.32-.69.64-1.37,1-2,.5-1,1-1.92,1.6-2.86a61,61,0,0,1,4.07,6.86,4.17,4.17,0,0,0,2.49,1.92,4.28,4.28,0,0,0,3.21-.42,4.19,4.19,0,0,0,1.91-2.49l.15-1.11a4.09,4.09,0,0,0-.57-2.1c-1.34-3.07-3.57-5.63-5.06-8.62a3.37,3.37,0,0,0-.79-.95c.36-.36.72-.72,1.1-1.06l1.06-.91.11-.1.14-.09c.66-.45,1.3-.91,2-1.31a18.67,18.67,0,0,1,1.77-.94l.3-.14.22-.09.93-.32a20.5,20.5,0,0,1,2.22-.53l.07,0H764c.44,0,.88-.06,1.32-.07a4.17,4.17,0,0,0,0-8.33c-7.57.12-14.26,4.42-19.11,10a46.39,46.39,0,0,0-10.11,19.09A4.23,4.23,0,0,0,739,335.05Z" transform="translate(367.13 106.65)"/><path class="cls-12" d="M579,266.14a15.31,15.31,0,0,0,6.38-4.4,15.81,15.81,0,0,1,9.47-5.4,10,10,0,0,1,7.8,2c2.74,2.21,4.44,6.12,4,11.62-.56,7.24,4.58,7,10.06,9,9.06,3.22,17.91,7.09,27.09,10.12a231.77,231.77,0,0,0,25.08,7.25l1,.18c2.38.47,4.75.88,7.14,1.16,15,1.79,30.21,2.74,38.38-12.3a124.84,124.84,0,0,0,9.2-23.35c3-9.86,7-20,8.62-30.09,1.53-9.39,2.88-25.13-6.16-31.68a40.91,40.91,0,0,0-5.9-3.49c-.87-.43-1.75-.85-2.66-1.24a2,2,0,0,1-2.64,1.36c-10-3.6-20.24-6.63-30.39-9.87-19.09-6.09-38.22-11.67-57.71-16.38-19.73-4.77-39.56-9.68-59.51-13.46-2.88-.54-1.65-4.94,1.22-4.39,11.25,2.13,22.37,4.9,33.54,7.42,14.59,3.3,29.17,6.68,43.63,10.49-.88-.78-1.74-1.58-2.62-2.35-11.59-10.07-25.11-15.8-37.71-24.11,20.69-9.11,45.44-6.92,67.58-.66,7,2,13.7,4.92,18,10.42-4.17-8.21-7.85-18.71-6.7-27,8.22,11.84,27.36,16,40.68,19.33,10,2.47,24.15,2.32,32.57,8.14A140.84,140.84,0,0,1,743.63,117c-2.6-11.35-4.22-22.94-6.3-34.4-1.1-6.08-1-12.17-1-18.21-.4-1-.81-2-1.22-2.94-7.69,14.33-13.33,34.25-10.54,50.79-22.29-20.17-33.93-46.27-38.8-78.3-8.33,4.46-16.21,12.68-22,20.64C654,67.92,653.05,78.71,651.91,94.89c-6.46-1.78-13.12-8.46-19.82-11.35-7.23-3.11-14.7-6.5-22.35-7.84-12.92-2.25-25.07,2.3-37.28,2.53,5.82,9.37,11.13,26.81,8.53,38.28-6.19-5-12.26-11.7-18-17.63-1.66,17.26-5.68,38.27-1.37,56.15a35.29,35.29,0,0,0-3.71.36c-5.05.78-9.93,1.53-13.92,4.94-7.86,6.72-13.61,18.67-16.63,28.31-2.27,7.27-5.48,13.64-7.92,20.79-4.62,13.52-6.27,31.44,7,40.83,9.08,6.42,20.93,9.86,31.67,13.23l4,1.27c6,2,11.76,3.16,16.83,1.38m-18.38-99.79c3.22-.72,6.15-.09,9.33.34a199,199,0,0,1,22.6,4.51c13.18,3.34,26.26,7.52,39.29,10.75,4.58,1.14,9.14,2.38,13.67,3.68,6.81,1.94,13.58,4,20.38,5.93l2.33.65c8.74,2.37,18.29,4.36,26.32,8.27a19.06,19.06,0,0,1,10.62,13.65,22.22,22.22,0,0,1,.18,7.34c-1.26,9-5.28,19.47-8.87,28.27a17.58,17.58,0,0,0-2.59-.73c-2.73-.53-4.63.18-6.88,1.74-2,1.38-2.61,1.09-3-1.05-.46-2.38-.59-4.56-2.11-6.59-3.37-4.52-8.46-2.31-12.5-.11-3.1,1.69-9.14,5.42-12.58,2.67a4.71,4.71,0,0,1-.57-.53c-1.9-2.15-2.37-5.77-2.79-8.47s-.69-5.26-.88-7.89a124.11,124.11,0,0,0-1.24-12.63,25.14,25.14,0,0,0-2.72-8.24,12.68,12.68,0,0,0-2.18-2.81c-3.2-3-7.81-3.12-11.78-1.72-5.52,2-9.94,6.08-14.19,10a127.2,127.2,0,0,1-13.57,11.3c-1.37.93-4.76,3.41-6.59,2.42-.91-.49-1.07-2.11-1.22-3-.46-2.61-.35-5.48-1.2-8a9.73,9.73,0,0,0-.74-1.69c-2.19-3.76-6.52-3.46-9.54-1-1.31,1.08-2.67,3.14-4.4,3.55-.73.17-1-.11-1.46-.64-1.49-1.9-2-4.6-2.56-6.89-.76-3.13-1.35-6.31-2.22-9.41-1.65-5.82-5.26-12.5-12.41-9.91-5.09,1.83-8.54,6.24-12.38,9.81-2.23,2.07-5.24,4.66-8.52,4.06a26.67,26.67,0,0,1-5-1.75c-.41-.17-.83-.32-1.26-.46a70.47,70.47,0,0,1,3.69-8.84c4.81-9.4,7.45-23.84,19.55-26.53M556.7,242.9c-15.37-4.19-29.34-11.13-23.52-28.13,1-3,1.91-5.92,2.84-8.84,2.2.56,4.2,1.89,6.43,2.39a11.07,11.07,0,0,0,7.88-1.37c4.91-2.68,8-7.57,12.47-10.78,1.89-1.35,4.65-3,6.54-1.58,1.58,1.19,2.43,3.9,3,5.85,1.69,5.61,2,12,4.88,17.21,1.13,2,3,3.75,5.39,3.85a7.43,7.43,0,0,0,5-2c1-.83,3.43-4.13,5-3.5.75.3,1.17,1.27,1.42,2.44a51.89,51.89,0,0,1,.48,5.37c.4,3.05,1.28,6.6,4.62,7.63,5,1.53,10.37-2.88,13.87-5.78,4.4-3.63,8.69-7.34,12.95-11.13,3.75-3.34,9.16-8.25,14.66-7.46,2.12.31,3.47,1.84,4.4,3.67a20.6,20.6,0,0,1,1.52,4.43c2.22,9.3.68,19.32,3.9,28.42a12.94,12.94,0,0,0,2.64,4.48c2.29,2.47,5.51,3.54,9.48,2.73a29.27,29.27,0,0,0,7.57-3c1.75-.91,5.17-3.62,7.29-2.76s1.9,4.52,2.32,6.36c.47,2,1.5,4,3.6,4.6,2.81.86,4.81-.69,7-2.05a5.17,5.17,0,0,1,4.47-.08c-2.67,6.72-5,13.83-9.13,19.81-7.54,11-20.66,2.72-30.67-.33-8.93-2.73-17.7-6-26.47-9.23-5.51-2-11-4.05-16.59-5.92-7.71-2.6-15.62-4.57-23.39-7l-.54-.16c-1.88-.59-3.75-1.2-5.62-1.86-6.26-2.19-16.25-3.73-25.7-6.31" transform="translate(367.13 106.65)"/><path class="cls-6" d="M538.66,202.18c3.64-1.92,7.35-3.73,10.91-5.61,11.08-5.85,29.78-18,43-25.37a199,199,0,0,0-22.6-4.51c-3.18-.43-6.11-1.06-9.33-.34-12.1,2.69-14.74,17.13-19.55,26.53a70.47,70.47,0,0,0-3.69,8.84c.43.14.85.29,1.26.46" transform="translate(367.13 106.65)"/><path class="cls-6" d="M628.54,264.12c8.77,3.24,17.54,6.5,26.47,9.23,10,3,23.13,11.31,30.67.33,4.1-6,6.46-13.09,9.13-19.81a5.17,5.17,0,0,0-4.47.08c-2.23,1.36-4.23,2.91-7,2.05-2.1-.64-3.13-2.59-3.6-4.6-.42-1.84-.18-5.49-2.32-6.36s-5.54,1.85-7.29,2.76a29.27,29.27,0,0,1-7.57,3c-4,.81-7.19-.26-9.48-2.73l-1.39.88C643.84,253.87,636.16,259,628.54,264.12Z" transform="translate(367.13 106.65)"/><path class="cls-6" d="M588,251.07l.54.16q2.51-1.89,5.09-3.67c17.35-11.94,34.64-24,51.33-36.81-.93-1.83-2.28-3.36-4.4-3.67-5.5-.79-10.91,4.12-14.66,7.46-4.26,3.79-8.55,7.5-12.95,11.13-3.5,2.9-8.89,7.31-13.87,5.78-3.34-1-4.22-4.58-4.62-7.63a51.89,51.89,0,0,0-.48-5.37c-8.31,5.2-16.59,10.42-24.78,15.76-4.26,2.78-8.41,5.7-12.52,8.69,9.45,2.58,19.44,4.12,25.7,6.31,1.87.66,3.74,1.27,5.62,1.86" transform="translate(367.13 106.65)"/><path class="cls-6" d="M597.89,216c.85,2.55.74,5.42,1.2,8,.15.89.31,2.51,1.22,3,1.83,1,5.22-1.49,6.59-2.42a127.2,127.2,0,0,0,13.57-11.3c4.25-3.87,8.67-8,14.19-10,4-1.4,8.58-1.31,11.78,1.72a12.68,12.68,0,0,1,2.18,2.81c6.49-5.15,12.93-10.65,19.62-15.7l-2.33-.65c-6.8-1.94-13.57-4-20.38-5.93C629.91,196.1,613.87,206,597.89,216Z" transform="translate(367.13 106.65)"/><path class="cls-6" d="M656.82,245.67c3.44,2.75,9.48-1,12.58-2.67,4-2.2,9.13-4.41,12.5.11,1.52,2,1.65,4.21,2.11,6.59.4,2.14,1,2.43,3,1.05,2.25-1.56,4.15-2.27,6.88-1.74a17.58,17.58,0,0,1,2.59.73c3.59-8.8,7.61-19.24,8.87-28.27a22.22,22.22,0,0,0-.18-7.34C689.1,224.71,673.07,235.35,656.82,245.67Z" transform="translate(367.13 106.65)"/><path class="cls-13" d="M549.57,196.57c-3.56,1.88-7.27,3.69-10.91,5.61a26.67,26.67,0,0,0,5,1.75c3.28.6,6.29-2,8.52-4.06,3.84-3.57,7.29-8,12.38-9.81,7.15-2.59,10.76,4.09,12.41,9.91.87,3.1,1.46,6.28,2.22,9.41.55,2.29,1.07,5,2.56,6.89.42.53.73.81,1.46.64,1.73-.41,3.09-2.47,4.4-3.55,3-2.49,7.35-2.79,9.54,1a9.73,9.73,0,0,1,.74,1.69c16-10,32-19.92,47.64-30.39-4.53-1.3-9.09-2.54-13.67-3.68-13-3.23-26.11-7.41-39.29-10.75-13.22,7.41-31.92,19.52-43,25.37" transform="translate(367.13 106.65)"/><path class="cls-13" d="M569.22,234.21c8.19-5.34,16.47-10.56,24.78-15.76-.25-1.17-.67-2.14-1.42-2.44-1.54-.63-4,2.67-5,3.5a7.43,7.43,0,0,1-5,2c-2.43-.1-4.26-1.83-5.39-3.85-2.9-5.18-3.19-11.6-4.88-17.21-.59-1.95-1.44-4.66-3-5.85-1.89-1.43-4.65.23-6.54,1.58-4.48,3.21-7.56,8.1-12.47,10.78a11.07,11.07,0,0,1-7.88,1.37c-2.23-.5-4.23-1.83-6.43-2.39-.93,2.92-1.83,5.87-2.84,8.84-5.82,17,8.15,23.94,23.52,28.13,4.11-3,8.26-5.91,12.52-8.69" transform="translate(367.13 106.65)"/><path class="cls-13" d="M648.62,207.91a25.14,25.14,0,0,1,2.72,8.24,124.11,124.11,0,0,1,1.24,12.63c.19,2.63.47,5.28.88,7.89s.89,6.32,2.79,8.47a4.71,4.71,0,0,0,.57.53c16.25-10.32,32.28-21,48.36-31.54a19.06,19.06,0,0,0-10.62-13.65c-8-3.91-17.58-5.9-26.32-8.27C661.55,197.26,655.11,202.76,648.62,207.91Z" transform="translate(367.13 106.65)"/><path class="cls-13" d="M588.56,251.23c7.77,2.4,15.68,4.37,23.39,7,5.57,1.87,11.08,3.89,16.59,5.92,7.62-5.17,15.3-10.25,23.11-15.16l1.39-.88a12.79,12.79,0,0,1-2.64-4.48c-3.22-9.1-1.68-19.12-3.9-28.42a20.6,20.6,0,0,0-1.52-4.43c-16.69,12.85-34,24.87-51.33,36.81Q591.07,249.35,588.56,251.23Z" transform="translate(367.13 106.65)"/><path class="cls-6" d="M717.05,192.44c-8.87-3.19-17.89-5.93-26.88-8.76-9.42-3-18.77-6.1-28.26-8.84q-7.62-2.21-15.29-4.2c-14.46-3.81-29-7.19-43.63-10.49-11.17-2.52-22.29-5.29-33.54-7.42-2.87-.55-4.1,3.85-1.22,4.39,19.95,3.78,39.78,8.69,59.51,13.46,19.49,4.71,38.62,10.29,57.71,16.38,10.15,3.24,20.36,6.27,30.39,9.87a2,2,0,0,0,2.64-1.36A2.36,2.36,0,0,0,717.05,192.44Z" transform="translate(367.13 106.65)"/><path class="cls-4" d="M923.08,579.44l0,0-.1.07c-.58.39-1.15.81-1.71,1.25a4.52,4.52,0,0,1-1.36.74c-3.23,2-6.6,3.71-9.87,5.59-4.66,2.66-9.23,5.45-13.78,8.29-4,2.51-8.33,4.44-12.1,7.3a2.42,2.42,0,0,1-1.27.46,75.07,75.07,0,0,0-7.55,4.39c.34,1.43.65,2.86.94,4.29a18.86,18.86,0,0,1,.5,2.42l0,.12c22.63,5.46,46.29,6.25,69.72,4.19h0c0-.5-.1-1-.14-1.5-.08-1-.17-2-.26-3-.13-1.26-.26-2.52-.41-3.78-.12-1-.23-1.91-.36-2.87-.19-1.43-.42-2.85-.64-4.27-.13-.78-.24-1.56-.38-2.33q-.57-3.31-1.27-6.6c-1.6-7.45-3.58-15.52-7.82-22l-.09-.16C931.43,574.88,927.05,576.74,923.08,579.44Z" transform="translate(367.13 106.65)"/><path class="cls-6" d="M853.35,544.36c2.87,11.06,6.48,22,9.65,33,.47,1.62,1,3.47,1.63,5.29,1.53,4.25,3.86,8.35,8.34,9.06,7,1.11,14.09-4.83,18.6-9.29,7.63-7.55,16.15-14.92,19.64-25.28,4-12-.56-20.78-6.18-31.34a197.29,197.29,0,0,0-21-31.67C875.7,484,867.55,471.33,854.87,466c-17.8-7.45-11.52,29.37-10.39,36.64C846.67,516.7,849.78,530.62,853.35,544.36Z" transform="translate(367.13 106.65)"/><path class="cls-14" d="M425.34-7.32c-12.9,0-25.81,3.46-38.22,10.33-13.64,7.5-26.69,19-38.54,34.06-11.75,14.81-22.34,33-31.28,53.68a369.41,369.41,0,0,0-21.57,68.51,471.71,471.71,0,0,0-10,80.05,512.56,512.56,0,0,0,3.53,84.43,455.09,455.09,0,0,0,16.22,76.59,343.29,343.29,0,0,0,26.93,64.81q1.6,2.91,3.24,5.73h0l1.32-3.09a302,302,0,0,1-18-36.67,398.68,398.68,0,0,1-21.39-70.5,486.67,486.67,0,0,1-9.77-79.9,498.4,498.4,0,0,1,3.52-82.93,416.11,416.11,0,0,1,16-73.34c7.17-22.53,16.12-43,26.46-60.5s22-32.23,34.61-43.25c13-11.42,26.89-18.92,41.05-22A72.24,72.24,0,0,1,453,2.41C466.8,8,480.15,17.94,492.46,31.75c12,13.57,23,30.81,32.56,51,9.58,20.4,17.64,43.72,23.83,69q.63,2.63,1.25,5.28c.72-.24,1.45-.44,2.19-.61a418.62,418.62,0,0,0-12.71-44.55c-8.14-23.28-18-44-29.11-61.31S486.78,19.39,473.53,9.62C459.86-.4,445.39-6,430.84-7.11c-1.83-.14-3.67-.21-5.5-.21" transform="translate(367.13 106.65)"/><path class="cls-15" d="M552.29,156.42c-.74.17-1.47.37-2.19.61q1.53,6.63,2.9,13.43a16.86,16.86,0,0,1,2-1.62q-1.26-6.27-2.67-12.42" transform="translate(367.13 106.65)"/><path class="cls-15" d="M559.23,193.17c-.67.55-1.33,1.13-2,1.73.28,1.83.54,3.67.8,5.51.64-.65,1.28-1.29,2-1.91q-.37-2.67-.78-5.33" transform="translate(367.13 106.65)"/><path class="cls-16" d="M555,168.84a16.86,16.86,0,0,0-2,1.62q2.18,10.85,3.89,22l2.05-1.2-.36-2.36Q557,178.75,555,168.84" transform="translate(367.13 106.65)"/><path class="cls-17" d="M558.94,191.28l-2.05,1.2c.13.8.25,1.61.37,2.42.64-.6,1.3-1.18,2-1.73-.09-.63-.19-1.26-.29-1.89" transform="translate(367.13 106.65)"/><path class="cls-18" d="M339.11,471.32l-1.32,3.1c9.15,15.19,19.21,28.34,29.9,38.94,13.13,13.09,27.11,22.29,41.41,27.28A77.67,77.67,0,0,0,422.31,544c.2-1.35.4-2.73.62-4.12-11.91-1.84-23.77-6.65-35.24-14.37-13.48-9-26.33-22-38-38.21q-5.46-7.54-10.55-16M540,437.87c-1.06.5-2.13,1-3.23,1.42-7.8,20.8-17.16,39.13-27.68,54.16-11,15.67-23.29,27.82-36.31,35.81l-.3.18c-.27,1.65-.54,3.32-.82,5a107.66,107.66,0,0,0,21.71-16.95c12.3-12.33,23.57-28.62,33.28-48.1A296,296,0,0,0,540,437.87m16.57-75.29c0,.14-.05.28-.07.42-2.4,14.81-5.45,29.1-9.07,42.7a25.11,25.11,0,0,1,1.94,2.05c.47-1.79.94-3.6,1.4-5.41,2.93-11.71,5.45-23.88,7.52-36.39-.5-.91-1-1.84-1.44-2.78-.09-.2-.19-.4-.28-.59" transform="translate(367.13 106.65)"/><path class="cls-19" d="M472.49,529.44C460.07,537,447,540.75,433.81,540.75c-1.05,0-2.11,0-3.17-.08a71.88,71.88,0,0,1-7.71-.77c-.22,1.39-.42,2.77-.62,4.12a71.57,71.57,0,0,0,31.06-1.74,79.37,79.37,0,0,0,18.3-7.85c.28-1.67.55-3.34.82-5m75-123.74c-2.85,10.7-6.06,21-9.6,30.73-.35.95-.7,1.91-1.06,2.86,1.1-.45,2.17-.92,3.23-1.42q5.16-14.37,9.37-30.12a25.11,25.11,0,0,0-1.94-2.05m15.29-104.91a527.71,527.71,0,0,1-6.15,61.79c.09.19.19.39.28.59.46.94.94,1.87,1.44,2.78,2.44-14.73,4.27-29.95,5.44-45.43q.69-9.06,1.09-18.21c-.71-.49-1.41-1-2.1-1.52m2.64-20.08c-.31.11-.61.23-.92.37a7.58,7.58,0,0,0-1.23.69q0,3.86-.12,7.7a19.65,19.65,0,0,0,2.09,2.42q.13-5.58.18-11.18m-2.25-15.65q.07,3.81.1,7.62l.19-.06q1-.3,2-.51c0-2.14-.05-4.27-.09-6.41-.71-.2-1.43-.41-2.15-.64" transform="translate(367.13 106.65)"/><path class="cls-20" d="M563.1,289.47c-.09,3.78-.21,7.56-.37,11.32.69.53,1.39,1,2.1,1.52q.23-5.21.36-10.42a19.65,19.65,0,0,1-2.09-2.42m2.26-17.36q-1,.21-2,.51l-.19.06c0,1.41,0,2.81,0,4.22,0,1.63,0,3.25,0,4.87a7.58,7.58,0,0,1,1.23-.69c.31-.14.61-.26.92-.37,0-1.22,0-2.45,0-3.68,0-1.64,0-3.28,0-4.92" transform="translate(367.13 106.65)"/><path class="cls-15" d="M562.33,244.32q.58,10.35.79,20.74c.72.23,1.44.44,2.15.64q-.21-10.45-.79-20.88l-2.15-.5" transform="translate(367.13 106.65)"/><path class="cls-16" d="M564.05,237.68c-.69.47-1.37.94-2,1.42.11,1.74.22,3.48.32,5.22l2.15.5q-.19-3.57-.43-7.14" transform="translate(367.13 106.65)"/><path class="cls-17" d="M560,198.5c-.67.62-1.31,1.26-2,1.91,1.51,10.92,2.7,22,3.56,33.22.14,1.82.27,3.65.39,5.47.67-.48,1.35-.95,2-1.42-.9-13.21-2.25-26.32-4-39.18" transform="translate(367.13 106.65)"/><path class="cls-14" d="M440.45,42.19l.43.1-.43-.1" transform="translate(367.13 106.65)"/><path class="cls-14" d="M380.72,57.16a4.55,4.55,0,0,0-.58.32,6.16,6.16,0,0,0,.58-.32" transform="translate(367.13 106.65)"/><path class="cls-14" d="M496.41,89.46s-.32-.47-.46-.72l.25.39c.16.24.21.33.21.33M424.89,19.83a70.52,70.52,0,0,0-34,9.11c-12.21,6.65-24,16.94-34.59,30.35s-20.09,29.43-28.11,48a339.73,339.73,0,0,0-19.88,63.34,425.46,425.46,0,0,0-8.83,72.11,463.58,463.58,0,0,0,3.22,75.94,411,411,0,0,0,14.57,68.87,308.66,308.66,0,0,0,24.12,58.23c.93,1.69,1.88,3.36,2.83,5h0l6.38-15c-.84-1.48-1.68-3-2.5-4.5a266.52,266.52,0,0,1-12.41-26.17c-.47-1.14-.94-2.3-1.4-3.46l-.69-1.74-.05-.12,0-.06c-.93-2.45-1.84-4.91-2.73-7.42q-2.61-7.38-4.95-15.1t-4.31-15.48c-.68-2.63-1.32-5.29-1.95-8-.31-1.34-.61-2.68-.91-4,0-.12-.1-.46-.17-.79s-.33-1.52-.37-1.74c-2.31-11.08-4.19-22.46-5.6-34q-1.1-8.87-1.83-17.85l-.3-3.95,0-.39c-.06-.86-.11-1.71-.16-2.56q-.27-4.5-.45-9c-.49-12.27-.47-24.58,0-36.79q.2-4.63.48-9.26c.05-.7.1-1.4.14-2.11h0c.12-1.57.25-3.14.38-4.71q.75-8.87,1.87-17.58c1.45-11.37,3.39-22.45,5.69-33.26l.05-.24c.13-.55.25-1.1.38-1.65.32-1.4.65-2.8,1-4.19q1-4,2-8,2-7.61,4.36-14.91c1.57-4.93,3.23-9.76,5-14.45.4-1.07.8-2.14,1.21-3.19.22-.57.45-1.14.67-1.7.06-.16.35-.89.52-1.3s.27-.66.32-.79l.69-1.66c.5-1.18,1-2.35,1.51-3.51a230.71,230.71,0,0,1,12.48-24.55c1.11-1.88,2.23-3.73,3.37-5.53l1.73-2.68.75-1.13.12-.17.09-.14c2.41-3.49,4.88-6.84,7.41-10a129.53,129.53,0,0,1,15.83-16.64c.69-.6,1.37-1.18,2.06-1.75l.19-.14-.09.05a9.25,9.25,0,0,0,1.19-.94q2.1-1.64,4.23-3.11a87.22,87.22,0,0,1,8.66-5.31,74.9,74.9,0,0,1,9.09-4.12q2.28-.86,4.56-1.54l1.89-.53.53-.13,1.33-.29a62.52,62.52,0,0,1,13.17-1.4q3,0,5.94.28a65.57,65.57,0,0,1,9.55,1.65c.34.09.67.19,1,.26l-.31-.06.42.1q1.23.36,2.46.78,2.28.77,4.55,1.71a82.09,82.09,0,0,1,17.86,10.35c1.42,1.06,2.81,2.19,4.21,3.35l.05,0,.05.05.89.77c.73.66,1.47,1.33,2.2,2q4.14,3.89,8.13,8.39t7.63,9.4c1.28,1.71,2.55,3.48,3.8,5.29.56.82,1.12,1.64,1.67,2.47l.9,1.35.24.38c1,2,2.32,3.72,3.43,5.61s2.34,4,3.48,6.12q3.28,6,6.37,12.57t6,13.74c.47,1.17.94,2.34,1.4,3.52l.38,1v0h0l.21.53.07.21h0l.09.23c.9,2.4,1.78,4.84,2.63,7.3,3.49,10.1,6.61,20.72,9.32,31.75.61,2.53,1.21,5.07,1.79,7.64a64.85,64.85,0,0,1,8.12-13.6,367.69,367.69,0,0,0-10.69-37.05C521,106.73,512,87.86,501.66,71.79c-10.07-15.6-21.3-27.82-33.2-36.65-12.26-9-25.28-14-38.33-15.09-1.74-.15-3.49-.22-5.24-.22" transform="translate(367.13 106.65)"/><path class="cls-19" d="M544.58,208.56h0m-2-.21a10,10,0,0,0,2,.21,10,10,0,0,1-2-.21m-.07,0h0m2.17-4.31h0m-7.25-2.3h0c.43.14.85.29,1.26.46a26.67,26.67,0,0,0,5,1.75,5.5,5.5,0,0,0,1,.09,5.5,5.5,0,0,1-1-.09,26.67,26.67,0,0,1-5-1.75h0c-.41-.17-.83-.32-1.26-.46" transform="translate(367.13 106.65)"/><path class="cls-15" d="M539.23,165.34a64.85,64.85,0,0,0-8.12,13.6c0,.2.09.41.14.62q.45,2.06.9,4.14c.1.79.33,1.61.48,2.38q1.74,8.68,3.14,17.63c.12.75.23,1.49.34,2.25,2.17.56,4.14,1.87,6.34,2.36h.1a10,10,0,0,0,2,.21h0a10.34,10.34,0,0,0,2.54-.32c-.21-1.51-.42-3-.64-4.52a6,6,0,0,1-1.83.3h0a5.5,5.5,0,0,1-1-.09,26.67,26.67,0,0,1-5-1.75c-.41-.17-.83-.32-1.26-.46h0a70.47,70.47,0,0,1,3.69-8.84c.94-1.83,1.79-3.85,2.65-5.93-1.34-7.33-2.85-14.55-4.51-21.61" transform="translate(367.13 106.65)"/><path class="cls-16" d="M543.74,187c-.86,2.08-1.71,4.1-2.65,5.93a70.47,70.47,0,0,0-3.69,8.84h0c.43.14.85.29,1.26.46h0c2.34-1.23,4.71-2.42,7.05-3.61-.07-.41-.13-.81-.19-1.22q-.84-5.23-1.78-10.4" transform="translate(367.13 106.65)"/><path class="cls-17" d="M545.71,198.57c-2.34,1.19-4.71,2.38-7.05,3.61h0a26.67,26.67,0,0,0,5,1.75,5.5,5.5,0,0,0,1,.09h0a6,6,0,0,0,1.83-.3c-.25-1.72-.5-3.44-.77-5.15" transform="translate(367.13 106.65)"/><path class="cls-14" d="M518.11,446.32c-.57.28-1.13.56-1.67.86-11.18,6.14-21.66,17.4-27.22,28.89-3.24,6.69-5.22,14.21-7.66,21.4q2.63-2.33,5.21-4.9c11-11.07,21.15-25.76,29.85-43.2.5-1,1-2,1.49-3.05m-165.4-6.92-6.38,15c8.16,13.55,17.11,25.33,26.65,34.75a114.24,114.24,0,0,0,22.79,17.82,35.48,35.48,0,0,1,.15-19.06c-3.06,0-6.26.16-9.41.16-10.24,0-20.07-1.49-23.69-13.26a38.78,38.78,0,0,1-.45-20.89l-.84-1.14c-1.24-1.71-2.47-3.47-3.68-5.26-1.06-1.58-2.09-3.47-3.19-5l.2.24-.49-.63h0l-.11-.14.1.13-.18-.27-.87-1.43-.61-1M541,257.72q.31,8.92.31,17.86,0,9.76-.38,19.49-.18,4.71-.46,9.41c0,.78-.09,1.55-.14,2.33V307c-.11,1.55-.23,3.09-.35,4.63-1,12.36-2.45,24.52-4.37,36.34q-1.4,8.58-3.12,16.91l-.06.3c-.17.62-.28,1.31-.43,2-.32,1.46-.64,2.91-1,4.36q-.94,4-2,8c-1.89,7.36-4,14.51-6.24,21.39a40.63,40.63,0,0,1,8.18-.85,38.09,38.09,0,0,1,4.38.25q1.54-5.38,2.94-11a433.74,433.74,0,0,0,11-64.51,145.3,145.3,0,0,1,1.3-16.78c.65-10.53,1-21.14,1-31.81v-.13q0-7.38-.22-14.78c-3.48-1.11-7-2.29-10.41-3.63" transform="translate(367.13 106.65)"/><path class="cls-19" d="M526.11,427.81c-3,3.25-7.54,5.71-11.05,7.86-3.16,1.94-6.12,4.07-9.45,5.48q-1.59,2.91-3.24,5.69T499,452.32c-.57.89-1.15,1.77-1.73,2.64-.28.44-.57.87-.87,1.3l-.24.35a138.8,138.8,0,0,1-15,18.06A103.43,103.43,0,0,1,473,482c-.63.51-1.27,1-1.91,1.5-.32.24-.67.44-1,.72l-.31.22c-1.39,1-2.8,1.92-4.21,2.8a70.66,70.66,0,0,1-17.74,7.95c-1.57.45-3.14.84-4.72,1.16l-.11,0c.2.63.4,1.25.62,1.86,1.36,3.83,3.13,7.5,3.9,11.51a4.44,4.44,0,0,1-4.5,5.22,3.45,3.45,0,0,1-3.53-3c-.85-4.47-3-8.5-4.34-12.8-.2-.61-.38-1.22-.55-1.84-.79,0-1.57.05-2.36.05s-1.52,0-2.28,0a65.93,65.93,0,0,1-19.1-3.63l-.72-.26-.55-.2c-.77-.29-1.53-.61-2.3-.93q-2.28-1-4.55-2.12a86.87,86.87,0,0,1-9.08-5.29,104.33,104.33,0,0,1-8.8-6.55q-2-1.69-4.05-3.51a22.65,22.65,0,0,1-10-6.93c-2.33-2.81-4.92-6.58-5.74-10.47q-1.33-1.74-2.66-3.54a38.78,38.78,0,0,0,.45,20.89c3.62,11.77,13.45,13.26,23.69,13.26,3.15,0,6.35-.14,9.41-.16a35.48,35.48,0,0,0-.15,19.06,85.42,85.42,0,0,0,15.43,7.12,65.43,65.43,0,0,0,21.42,3.65,66.34,66.34,0,0,0,18.27-2.61c10.61-3.06,21-9.07,30.67-17.62,2.44-7.19,4.42-14.71,7.66-21.4,5.56-11.49,16-22.75,27.22-28.89.54-.3,1.1-.58,1.67-.86q4.23-8.81,8-18.51M531,400.07a40.63,40.63,0,0,0-8.18.85c-1,3-2,6-3.07,8.86-.17.47-.34.93-.53,1.39.67.06,1.35.15,2,.27,3,.54,6.3,1.78,7.46,4.82a12,12,0,0,1,.7,2.74q3.2-9,6-18.68a38.09,38.09,0,0,0-4.38-.25m19.61-92a145.3,145.3,0,0,0-1.3,16.78c.27-2.86.52-5.72.74-8.61q.3-4.08.56-8.17M541,257.72h0c3.42,1.34,6.93,2.52,10.41,3.63h0c-3.48-1.11-7-2.29-10.41-3.63" transform="translate(367.13 106.65)"/><path class="cls-21" d="M519.19,411.17c-.75,1.89-1.58,3.75-2.19,5.78l-.68,1.65c-.49,1.2-1,2.39-1.5,3.57q-2.85,6.6-5.93,12.73c-1.07,2.13-2.17,4.21-3.28,6.25,3.33-1.41,6.29-3.54,9.45-5.48,3.51-2.15,8-4.61,11.05-7.86q1.7-4.32,3.27-8.81a12,12,0,0,0-.7-2.74c-1.16-3-4.42-4.28-7.46-4.82-.68-.12-1.36-.21-2-.27" transform="translate(367.13 106.65)"/><path class="cls-20" d="M365,457.42c.82,3.89,3.41,7.66,5.74,10.47a22.65,22.65,0,0,0,10,6.93l-.16-.15-.56-.52-.58-.55c-.69-.66-1.37-1.33-2.06-2A151.42,151.42,0,0,1,365,457.42" transform="translate(367.13 106.65)"/><path class="cls-20" d="M443,496.35c-.67.14-1.35.26-2,.37h-.11l-1.33.17c-1.64.2-3.28.33-4.93.39.17.62.35,1.23.55,1.84,1.38,4.3,3.49,8.33,4.34,12.8a3.45,3.45,0,0,0,3.53,3,4.44,4.44,0,0,0,4.5-5.22c-.77-4-2.54-7.68-3.9-11.51-.22-.61-.42-1.23-.62-1.86" transform="translate(367.13 106.65)"/><path class="cls-15" d="M539.65,235.77c.13,1.52.25,3,.37,4.55s.17,3,.32,4.51l0,.4c0,.78.1,1.56.14,2.35q.25,4.56.43,9.13c0,.34,0,.68,0,1,3.42,1.34,6.93,2.52,10.41,3.63-.19-6.8-.52-13.61-1-20.38a44.37,44.37,0,0,1-10.75-5.2" transform="translate(367.13 106.65)"/><path class="cls-17" d="M536.11,206c1.49,9.78,2.67,19.75,3.54,29.81A44.37,44.37,0,0,0,550.4,241c-.74-11-1.84-22-3.28-32.73a10.34,10.34,0,0,1-2.54.32h0a10,10,0,0,1-2-.21h-.1c-2.2-.49-4.17-1.8-6.34-2.36" transform="translate(367.13 106.65)"/><path class="cls-18" d="M517,131.28a8.15,8.15,0,0,0,.41,1.23,2.89,2.89,0,0,0-.13-.49h0c-.09-.24-.2-.48-.28-.74h0" transform="translate(367.13 106.65)"/><path class="cls-14" d="M363.78,413.41l-2.06,4.85-1.28,3-2.06,4.84c3.06,5.07,6.24,9.86,9.54,14.31a68.28,68.28,0,0,1,7.43-10.31q-2.88-3.62-5.66-7.59-2.19-3.12-4.29-6.44l-1.62-2.66M522.57,246.78c0,.35,0,.7.07,1.05a421.38,421.38,0,0,1,.56,42.2c-.13,3.64-.32,7.28-.55,10.89a375.79,375.79,0,0,1-4.9,39.91q-.88,5-1.91,9.85t-2.31,9.89a17.39,17.39,0,0,0-.44,6.72,14.27,14.27,0,0,0,1.32,4.39c-1.9,6.82-4,13.4-6.29,19.69a214.81,214.81,0,0,1-8.87,20.9q2.1-1.59,4.32-3a251,251,0,0,0,12.69-35.52,2.46,2.46,0,0,0,1.26.4,1.92,1.92,0,0,0,.94-.25,5.9,5.9,0,0,0,2.61-3.83,357.93,357.93,0,0,0,7.25-37.43c1.85-13.23,3-26.91,3.56-40.7.52-12.76.45-25.65-.21-38.44a51.68,51.68,0,0,1-5.15-3.2,23.47,23.47,0,0,1-3.95-3.48M424.62,58a54.29,54.29,0,0,0-12.94,1.58A67.28,67.28,0,0,0,388.9,70a103.88,103.88,0,0,0-20.57,19.27c-.76.92-1.51,1.87-2.26,2.82a10.39,10.39,0,0,0-2,5,17.34,17.34,0,0,0,.14,5.37,182,182,0,0,0-18.72,33.78c-.85,2-1.69,4-2.51,6a3,3,0,0,0-1.8-.75,1.93,1.93,0,0,0-1,.29,6.81,6.81,0,0,0-2.61,3.79,295.17,295.17,0,0,0-11,38.76,339.78,339.78,0,0,0-6.31,41.3,395.67,395.67,0,0,0,2.44,93.49,352.67,352.67,0,0,0,9.09,43.13c.44,1.61.91,3.21,1.37,4.8a7.42,7.42,0,0,0,2.61,4.1,2.67,2.67,0,0,0,1.36.39,2.5,2.5,0,0,0,1.15-.28,250.93,250.93,0,0,0,17.14,41,12.88,12.88,0,0,0-.51,3.88,14,14,0,0,0,1.28,6.11l.15.26,2.07-4.85,1.28-3,2-4.8a3.6,3.6,0,0,0-2.46-1.78H359a3.16,3.16,0,0,0-2.34,1.3c-3.42-6.42-6.62-13.27-9.59-20.47q-3.87-9.39-7.17-19.58a14.5,14.5,0,0,0,.7-10.11c-2.16-7.33-4.09-14.89-5.78-22.63A358.21,358.21,0,0,1,329,298.53c-.35-3.44-.64-6.9-.9-10.37a387,387,0,0,1-.55-40.58c.14-3.43.32-6.84.54-10.25A350.22,350.22,0,0,1,333,198.94q.88-4.77,1.89-9.43a281.6,281.6,0,0,1,10.21-35.07,16,16,0,0,0,.44-6.5,14,14,0,0,0-.88-3.24A201.21,201.21,0,0,1,358,117.17q3.54-6,7.38-11.4a4.26,4.26,0,0,0,1.71,1.87,3.07,3.07,0,0,0,1.31.31,2.57,2.57,0,0,0,2.06-1.08,108.13,108.13,0,0,1,16.73-17.38,70.78,70.78,0,0,1,19.44-11.13q2.75-1,5.5-1.72a54.44,54.44,0,0,1,12.27-1.42,53.48,53.48,0,0,1,8.55.69,54.51,54.51,0,0,1,5.58,1.22,66.11,66.11,0,0,1,19.89,10c1.7,1.23,3.39,2.56,5.05,4a107.64,107.64,0,0,1,11.78,12.17,2.94,2.94,0,0,0,2.23,1.19c1.13,0,2.25-.81,3.05-2.35a172.31,172.31,0,0,1,18.15,30.53A256.11,256.11,0,0,1,512,167.72a15.91,15.91,0,0,0-.75,10.65c1.7,6.21,3.24,12.6,4.62,19.12,1,4.88,1.9,9.82,2.7,14.82.29-1,.6-1.94.92-2.88,1.61-4.72,3.55-9.09,5.34-13.61-1.44-7.44-3.09-14.72-4.92-21.79-.37-1.42-.74-2.83-1.12-4.22a7.22,7.22,0,0,0-2.61-4.14,2.48,2.48,0,0,0-1.24-.33,2.51,2.51,0,0,0-1.18.29q-1.86-6.19-3.93-12.11a217.83,217.83,0,0,0-21.56-45.38c-2.15-3.36-4.38-6.55-6.66-9.55.58-3.81-.09-8.06-1.92-10.25a101.22,101.22,0,0,0-21.3-19.52A64.81,64.81,0,0,0,434.9,59a53.37,53.37,0,0,0-10.28-1" transform="translate(367.13 106.65)"/><path class="cls-19" d="M436.22,461.9a52.45,52.45,0,0,1-5.47.28h-.24a19.58,19.58,0,0,1-8.3,6.08,11.79,11.79,0,0,1-3.89.63H418a28.36,28.36,0,0,1-3,8.14,60,60,0,0,0,7.3,1.68,54.65,54.65,0,0,0,8.72.71l1.28,0a50.11,50.11,0,0,1,3.86-17.47v0M417,460.37a3.1,3.1,0,0,0,1,.25l-.47-.12-.49-.13M375.35,430.1a68.28,68.28,0,0,0-7.43,10.31c2.5,3.37,5.07,6.55,7.71,9.51a103.64,103.64,0,0,0,22.26,19.28,73.83,73.83,0,0,0,9.25,4.92c.45-.76.87-1.57,1.26-2.4a17.47,17.47,0,0,0,1-2.57c.17-.54.33-1.08.46-1.64,0-.15.17-1.08.19-1.08s0,.11,0,.4a5.55,5.55,0,0,1,.23-1.09l-.44-.4c-1.36-1.48-1.73-3.34-2.72-4.84-.83-1.25-2.4-1.36-3.88-1.82-4.92-1.56-9.53-3.6-13.3-7.22a27.1,27.1,0,0,1-7.66-13.39c-2.34-2.49-4.65-5.15-6.9-8m128.22-20.87q-2.22,1.45-4.32,3a159.49,159.49,0,0,1-12.24,21,116.62,116.62,0,0,1-10.77,13.31c-.92-2-2.14-3.07-3.41-3.07a2.9,2.9,0,0,0-2,.9,87.46,87.46,0,0,1-7.36,6.25,64.5,64.5,0,0,1-16.95,8.92,53.52,53.52,0,0,0-2.38,4.8,42.26,42.26,0,0,0-3.43,14.19,56.21,56.21,0,0,0,7.74-1.95c8.34-2.73,16.43-7.63,24.09-14.31.91-.79,1.81-1.61,2.7-2.45,1.68-1.59,2.51-5.93,2-9.62,8.46-9,16.22-20.46,23-34,1.14-2.27,2.24-4.61,3.32-7m19-162.45h0a23.47,23.47,0,0,0,3.95,3.48,51.68,51.68,0,0,0,5.15,3.2h0a51.68,51.68,0,0,1-5.15-3.2,23.47,23.47,0,0,1-3.95-3.48" transform="translate(367.13 106.65)"/><path class="cls-20" d="M382.25,438.07a27.1,27.1,0,0,0,7.66,13.39c3.77,3.62,8.38,5.66,13.3,7.22,1.48.46,3.05.57,3.88,1.82,1,1.5,1.36,3.36,2.72,4.84l.44.4a5.55,5.55,0,0,0-.23,1.09c0-.29,0-.4,0-.4s-.16.93-.19,1.08c-.13.56-.29,1.1-.46,1.64a17.47,17.47,0,0,1-1,2.57c-.39.83-.81,1.64-1.26,2.4a65.82,65.82,0,0,0,7.91,2.91,28.36,28.36,0,0,0,3-8.14h.29a11.79,11.79,0,0,0,3.89-.63,19.58,19.58,0,0,0,8.3-6.08,54.17,54.17,0,0,1-12.59-1.56,3.1,3.1,0,0,1-1-.25q-2.4-.63-4.8-1.48a74.66,74.66,0,0,1-19.91-11.57c-1.69-1.34-3.36-2.77-5-4.27s-3.34-3.24-5-5" transform="translate(367.13 106.65)"/><path class="cls-20" d="M446.54,459.56c-.88.3-1.76.57-2.65.82a53.2,53.2,0,0,1-5.33,1.22c-.78.12-1.56.21-2.34.3v0a50.11,50.11,0,0,0-3.86,17.47,55.1,55.1,0,0,0,8.38-.85,42.26,42.26,0,0,1,3.43-14.19,53.52,53.52,0,0,1,2.38-4.8" transform="translate(367.13 106.65)"/><path class="cls-15" d="M524.82,195.82c-1.79,4.52-3.73,8.89-5.34,13.61-.32.94-.63,1.9-.92,2.88,1.31,8.06,2.37,16.27,3.17,24.58q.48,4.92.84,9.89a23.47,23.47,0,0,0,3.95,3.48,51.68,51.68,0,0,0,5.15,3.2c0-.64-.07-1.29-.1-1.93-.77-13.65-2.07-27.17-4.09-40.35q-1.18-7.77-2.66-15.36" transform="translate(367.13 106.65)"/><path class="cls-14" d="M375.39,386.18l-1.68,3.94-1,2.44-1.69,4a139.9,139.9,0,0,0,8.3,12.32,104,104,0,0,0,8.36,9.82,80.45,80.45,0,0,1,9.45-6.17q-1.33-1.11-2.67-2.31a110.33,110.33,0,0,1-17.63-21.7c-.47-.76-.94-1.53-1.4-2.31m35.36-286a2.89,2.89,0,0,0-.89.16,56.5,56.5,0,0,0-17.37,9.52,91,91,0,0,0-16.84,17.5,145.31,145.31,0,0,0-14.77,25,207.66,207.66,0,0,0-11.38,30.55,267.31,267.31,0,0,0-7.32,33.85c-.21,1.39-.41,2.78-.6,4.18-.41,3,.34,6.57,1.79,8.05-.81,7.21-1.37,14.53-1.67,21.92-.26,6.5-.31,13-.17,19.59-1.41.84-2.62,3.22-2.49,6.3a322.71,322.71,0,0,0,3.73,37.34,282.27,282.27,0,0,0,8,35.44A223.93,223.93,0,0,0,363.19,382c1.81,3.8,3.72,7.46,5.7,10.95h0l1.69-4,1-2.45,1.69-4a187.35,187.35,0,0,1-11-23.51,245.78,245.78,0,0,1-10.25-34.86,292.2,292.2,0,0,1-4.84-31.52c-.28-2.77-.51-5.56-.71-8.35q-.24-3.54-.39-7.09a12.07,12.07,0,0,0-1-4.91,4.29,4.29,0,0,0-1.88-2,304.79,304.79,0,0,1,1.8-40.57h0c1.53,0,3-1.75,3.38-4.79,1-7.13,2.19-14.11,3.66-20.89a222.83,222.83,0,0,1,10.26-33.64,154.49,154.49,0,0,1,14.49-27.67,92.19,92.19,0,0,1,17.56-19.5,56.29,56.29,0,0,1,17.38-9.48c.82-.27,1.7-1.78,2.11-3.14a12.65,12.65,0,0,0,.47-2.94c.51-.12,1-.23,1.54-.33a42.88,42.88,0,0,1,8.43-.84,43.32,43.32,0,0,1,13.64,2.22c.13,2.87,1,5.72,2.55,6.35A60.5,60.5,0,0,1,456.32,125a100.35,100.35,0,0,1,17.6,21,171.72,171.72,0,0,1,14.49,29.44A249.76,249.76,0,0,1,498.67,211c1.51,7.37,2.76,14.93,3.74,22.63.38,3,1.88,5.3,3.4,5.42.32,3,.59,6,.83,9.06.65,8.44,1,17,1,25.47a324.08,324.08,0,0,1-2.3,38.69h-.13c-1.52,0-2.89,1.81-3.34,4.91q-1.31,9.06-3.13,17.74a226.52,226.52,0,0,1-10.32,34.56A148.83,148.83,0,0,1,473.93,397a92.92,92.92,0,0,1-11,13.13,45,45,0,0,0,6.83,9,109.12,109.12,0,0,0,11.83-15.8c8.3-13.34,15.29-30.16,20.37-49a284.54,284.54,0,0,0,6.7-32.94c.44-3-.33-6.68-1.72-8.28q.82-6.76,1.36-13.68c.65-8.51,1-17.12,1-25.78v0a340.77,340.77,0,0,0-1.85-35.39c1.45-1.48,2.25-4.68,1.82-8.07a308.61,308.61,0,0,0-6.66-35.62A243,243,0,0,0,492,162.1a172.23,172.23,0,0,0-14.2-27.65A103.85,103.85,0,0,0,462.16,115a67.51,67.51,0,0,0-17.59-12.44c-.73-.34-1.46-.66-2.2-1a2.52,2.52,0,0,0-1-.23,2.22,2.22,0,0,0-1.7.86,7.74,7.74,0,0,0-1.47,3.21,44.79,44.79,0,0,0-9.54-2,41.85,41.85,0,0,0-4.33-.22,44.11,44.11,0,0,0-10.25,1.22,7.46,7.46,0,0,0-1.47-3.37,2.48,2.48,0,0,0-1.84-.92" transform="translate(367.13 106.65)"/><path class="cls-19" d="M397.09,412.5a80.45,80.45,0,0,0-9.45,6.17,88,88,0,0,0,9.86,8.84q1.13.86,2.25,1.65a1.83,1.83,0,0,0,1.06.36c1.2,0,2.38-1.26,3-3.22a55.23,55.23,0,0,0,11.86,5.55q1.2.39,2.4.72a9.54,9.54,0,0,1-1.49-3.73,53.23,53.23,0,0,1-12.35-5.66c0-3.16-.94-6.07-2.57-7.22s-3-2.23-4.54-3.46m65.83-2.35a70.9,70.9,0,0,1-6.62,5.74,57.39,57.39,0,0,1-5.18,3.39,5,5,0,0,0-2.12,3,13.18,13.18,0,0,0-.48,4,43.61,43.61,0,0,1-19.09,4.52h-.22a21,21,0,0,1,3.48,3.18,43.91,43.91,0,0,0,9.47-1.78,46.71,46.71,0,0,0,6.9-2.74c.68,2.15,1.87,3.76,3.12,3.76A1.7,1.7,0,0,0,453,433a71.36,71.36,0,0,0,16.75-13.82,45,45,0,0,1-6.83-9" transform="translate(367.13 106.65)"/><path class="cls-20" d="M416.55,428.84a9.54,9.54,0,0,0,1.49,3.73,44.11,44.11,0,0,0,11.44,1.53c1.08,0,2.14,0,3.21-.12a21,21,0,0,0-3.48-3.18h-.69a44.43,44.43,0,0,1-12-2" transform="translate(367.13 106.65)"/><path class="cls-18" d="M484,222.42c.1.56.14.75.14.75l-.08-.45-.06-.3m0,0h0v0h0v0" transform="translate(367.13 106.65)"/><path class="cls-18" d="M475.71,193.83c.16.48.22.63.22.63l-.06-.2-.16-.42h0" transform="translate(367.13 106.65)"/><path class="cls-14" d="M438.28,134.86c-1.25,0-2.48,1.35-2.78,3.94-.32,2.77.42,6.29,2,6.95a45.23,45.23,0,0,1,6.84,3.64c1.14.74,2.28,1.54,3.4,2.4.52.4,1,.81,1.56,1.24l.78.65.31.27-.39-.31.48.4a78.62,78.62,0,0,1,12.39,14.45l1.38,2.1.25.4c.28.44.55.89.82,1.34q1.43,2.35,2.79,4.88c1.86,3.45,3.63,7.11,5.3,10.95q1.2,2.78,2.32,5.67l0-.08,0,.09.1.24.06.18.13.34c.18.47.35.94.53,1.42q.57,1.56,1.11,3.15,2.07,6,3.79,12.46,1,3.65,1.84,7.39c.25,1.11.5,2.23.74,3.36h0v.06l.05.27.12.58c.13.63.26,1.26.38,1.89,1,5.06,1.81,10.23,2.48,15.47.31,2.45,1.56,4.34,2.81,4.34a1.26,1.26,0,0,0,.67-.19c1.48-.88,2.38-3.77,2-6.87a220.15,220.15,0,0,0-13.81-54.46c-6.44-15.79-14.68-28.84-23.86-37.62A53,53,0,0,0,439,135a1.72,1.72,0,0,0-.7-.14" transform="translate(367.13 106.65)"/><path class="cls-18" d="M464.38,371c-.27.27-.34.37-.32.37h0l.3-.36" transform="translate(367.13 106.65)"/><path class="cls-14" d="M475.81,349.16l.1-.25-.09.23v0m13.46-45.74c-1.22,0-2.32,1.45-2.68,3.93-.56,3.84-1.2,7.64-1.93,11.35-.18.89-.35,1.76-.54,2.64l-.06.31v.05c-.12.5-.23,1-.34,1.52-.41,1.79-.83,3.55-1.28,5.29A171.43,171.43,0,0,1,476,348.78s-.05.13-.19.49l.05-.11-.11.28.06-.17-.43,1.06c-.35.85-.71,1.68-1.07,2.5q-1,2.3-2.06,4.48-2.18,4.49-4.55,8.53c-.8,1.35-1.61,2.67-2.44,3.94l-.62.94-.21.3-.07.11-.23.25h0c-.33.44-.64,1-.95,1.41a76.14,76.14,0,0,1-5.17,6.35,62.64,62.64,0,0,1-4.55,4.53,102,102,0,0,0,2.47,10.25,79.93,79.93,0,0,0,14.43-17.56c6.66-10.69,12.28-24.15,16.35-39.25a226.91,226.91,0,0,0,5.4-26.38c.4-2.82-.5-6.33-2-7.1a1.75,1.75,0,0,0-.81-.21" transform="translate(367.13 106.65)"/><path class="cls-19" d="M453.41,383.67c-.51.46-1,.9-1.54,1.33s-1,.84-1.56,1.24l-.07.06h0l-.25.18.06,0,.09-.07-.22.16.07-.06-.73.53c-1.08.76-2.17,1.46-3.28,2.1-1.4.82-2.46,3.69-2,6.73.38,2.38,1.55,4.41,2.82,4.41a1.28,1.28,0,0,0,.66-.19,52.36,52.36,0,0,0,8.39-6.14,102,102,0,0,1-2.47-10.25" transform="translate(367.13 106.65)"/><path class="cls-14" d="M375,341.61a2.58,2.58,0,0,0-.1-.28l0-.05.12.33m-15.9-71.74h0c-1.43,0-3,2.25-2.84,5.33a243.64,243.64,0,0,0,9.47,58.6,168.85,168.85,0,0,0,14,33.81h0l3.55-8.33q-1.15-2.1-2.27-4.3-2.84-5.61-5.33-11.8l-.54-1.36c-.1-.25-.19-.53-.3-.77-.38-1-.75-2-1.12-3.05q-1.1-3.06-2.1-6.22c-1.36-4.27-2.59-8.68-3.69-13.2q-.4-1.63-.78-3.3c-.11-.51-.23-1-.34-1.51,0-.27-.11-.54-.17-.8-.47-2.27-.92-4.57-1.33-6.89-.9-5.13-1.65-10.35-2.22-15.63-.29-2.63-.53-5.27-.74-7.92l-.06-.8c0-.23-.05-.84-.06-1,0,.07,0,.28,0,.72,0-.6-.07-1.19-.11-1.78-.08-1.38-.15-2.76-.21-4.15-.12-2.85-1.2-5.68-2.8-5.68" transform="translate(367.13 106.65)"/><path class="cls-18" d="M400.3,381.81l.12.14h0l.25.24h0l-.37-.38" transform="translate(367.13 106.65)"/><path class="cls-18" d="M386.31,364.44l.15.33.12.22h0a5.32,5.32,0,0,0-.28-.55" transform="translate(367.13 106.65)"/><path class="cls-14" d="M385.31,362.89l-3.54,8.31a112.07,112.07,0,0,0,6.66,9.89,74,74,0,0,0,16.42,16.21,1.49,1.49,0,0,0,.85.28c1.19,0,2.37-1.57,2.64-3.85.35-3-.46-6-2-7-1.24-.86-2.46-1.78-3.67-2.78-.53-.44-1.06-.88-1.58-1.34l-.44-.4,0,0,0,0,0,0-.22-.22h0l-.67-.61a78.15,78.15,0,0,1-6.84-7.5,100.67,100.67,0,0,1-6.32-8.85h0v0l-.12-.2-.28-.44-.69-1.13-.18-.31" transform="translate(367.13 106.65)"/><path class="cls-18" d="M375.11,189.36l-.12.19-.15.33h0c.21-.38.27-.52.27-.52" transform="translate(367.13 106.65)"/><path class="cls-14" d="M366.73,216.47v0h0m46.84-82.82a2,2,0,0,0-.62.1c-9.8,3.12-19.26,10.51-27.39,21.48-8.61,11.58-15.88,26.83-21,44.62a217,217,0,0,0-6.33,30.46c-.37,2.76.48,6.12,2,6.87a1.72,1.72,0,0,0,.78.19c1.23,0,2.38-1.4,2.71-3.85.61-4.48,1.34-8.9,2.2-13.23.21-1.06.42-2.12.65-3.17l.11-.49c-.05.22-.11.53-.11.53s0-.17.14-.67h0l0-.1,0,.07c.13-.59.27-1.18.41-1.78.49-2.08,1-4.14,1.55-6.16q1.69-6.3,3.74-12.18c.69-2,1.41-3.93,2.15-5.83.09-.21.17-.43.26-.64h0v0l.14-.31c.14-.31.26-.67.38-1q.6-1.44,1.23-2.85,2.47-5.56,5.26-10.57c.89-1.6,1.81-3.16,2.75-4.66.47-.75.94-1.48,1.41-2.21l.33-.49v0l.19-.24c.21-.3.41-.62.62-.91a72.55,72.55,0,0,1,12.51-13.87l.87-.72.45-.35c.62-.47,1.24-.92,1.87-1.36q1.88-1.31,3.78-2.38a41.34,41.34,0,0,1,7.81-3.41c.66-.21,1.36-1.42,1.69-2.51a10.51,10.51,0,0,0,.29-4.28c-.44-2.7-1.56-4.1-2.87-4.1" transform="translate(367.13 106.65)"/><path class="cls-14" d="M386.68,167.39l-.13.15-.2.26a2.79,2.79,0,0,0,.33-.41" transform="translate(367.13 106.65)"/><path class="cls-14" d="M394.39,341.57l-.62,1.47a68.36,68.36,0,0,0,10.89,14,37.82,37.82,0,0,0,14.89,9.3c.6.19,1.2.36,1.8.5l-.75-2.17a31.26,31.26,0,0,1-8.7-3.92,51.56,51.56,0,0,1-13.53-13.23c-1.38-1.87-2.7-3.87-4-6m30-172a27.45,27.45,0,0,0-12.73,3.22,44.22,44.22,0,0,0-13.83,11.85,83,83,0,0,0-11.17,19.12,133.15,133.15,0,0,0-7.76,24.9,174.06,174.06,0,0,0-3.58,29.26,191.82,191.82,0,0,0,1.27,30.9,167.17,167.17,0,0,0,5.83,27.9,122.43,122.43,0,0,0,9.31,22.68h0l.63-1.47a106.56,106.56,0,0,1-4.91-10.4,142.71,142.71,0,0,1-7.64-25.42,179,179,0,0,1-3.49-29.07,184.77,184.77,0,0,1,1.25-30.22,151.65,151.65,0,0,1,5.72-26.61,104.24,104.24,0,0,1,9.41-21.63A59.46,59.46,0,0,1,405,179.37,31.51,31.51,0,0,1,419.69,172a25.39,25.39,0,0,1,4.68-.43,26.69,26.69,0,0,1,10.86,2.36,41.27,41.27,0,0,1,14,10.86A79.78,79.78,0,0,1,461,203.24a131.88,131.88,0,0,1,8.47,24.37,177.62,177.62,0,0,1,4.57,28.8c.39,5,.57,10.08.58,15.13a187.37,187.37,0,0,1-2.39,30.09,144.06,144.06,0,0,1-6.7,26,90.47,90.47,0,0,1-10.21,20.24,59.88,59.88,0,0,1-4.94,6.21c0,.74,0,1.48.07,2.22a70,70,0,0,0,11.26-16.67,119.69,119.69,0,0,0,8.66-23.86A171.79,171.79,0,0,0,475,286.92c.39-5.05.58-10.17.59-15.32a196.52,196.52,0,0,0-2.45-31.05,159.32,159.32,0,0,0-6.82-27.3,107.24,107.24,0,0,0-10.42-21.92,58.32,58.32,0,0,0-13.25-15,31.09,31.09,0,0,0-15.33-6.56,24.36,24.36,0,0,0-3-.17" transform="translate(367.13 106.65)"/><path class="cls-19" d="M450.35,354.11a41.26,41.26,0,0,1-8,6.9,27.31,27.31,0,0,1-14.87,4.63h-.2a26.21,26.21,0,0,1-6.65-.93l.75,2.17a26,26,0,0,0,6.11.73,26.32,26.32,0,0,0,8-1.25A35.55,35.55,0,0,0,449.79,357l.63-.66c0-.74-.05-1.48-.07-2.22" transform="translate(367.13 106.65)"/><path class="cls-14" d="M424.7,217.09c-14.12,0-25.45,22.08-25.45,49.9,0,14.14,2.92,27.15,7.66,36.75h0l2.85-6.69c3.34-15.51,12.19-30.52,27.81-31h.56c7.32,0,11.21,4.41,13.14,10.69q.21-3.24.21-6.59c0-28.59-11.69-52.34-26.12-53h-.66" transform="translate(367.13 106.65)"/><path class="cls-19" d="M409.31,306.57l-.38.88.51.84c-.06-.57-.11-1.15-.13-1.72m28.82-40.52h-.56c-15.62.47-24.47,15.48-27.81,31l.81-1.92a34.45,34.45,0,0,1,10.24-16.9,17.69,17.69,0,0,1,4.37-.59c18,0,17.26,33.65,3.24,42.18l-.17.1c12-1.74,21.5-19.69,23-43.18-1.93-6.28-5.82-10.69-13.14-10.69" transform="translate(367.13 106.65)"/><path class="cls-21" d="M425.18,277.64a17.69,17.69,0,0,0-4.37.59,34.45,34.45,0,0,0-10.24,16.9l.55-1.29,3.06,1.3-4.87,11.43c0,.57.07,1.15.13,1.72,4.41,7,9.93,11.31,15.92,11.74l1,0a12.4,12.4,0,0,0,1.92-.14l.17-.1c14-8.53,14.73-42.18-3.24-42.18" transform="translate(367.13 106.65)"/><path class="cls-18" d="M174.29,310.1h0a28.59,28.59,0,0,1,3.13-13.76c1.94-3.48,4.72-5.71,7.92-5.71a6.59,6.59,0,0,1,1,.07L245,299.15c3.42.51,6.36,3.49,8.48,7.76a36.63,36.63,0,0,1,3.41,15.9V427.29h0a30,30,0,0,1-3,13.89c-1.85,3.48-4.52,5.7-7.62,5.7a6.23,6.23,0,0,1-1.48-.17h0l-58.69-13.22c-3.39-.78-6.32-3.87-8.44-8.13a35.72,35.72,0,0,1-3.41-15.49V310.1h0m7.62-27.53c-6.56,0-11.77,9.15-11.77,21.1v110.9c0,12.55,5.74,24.13,12.76,25.75l65.4,15a6.9,6.9,0,0,0,1.55.18c6.29,0,11.21-9,11.21-21.26V317.54c0-13.21-5.74-24.81-12.76-25.79l-65.4-9.11a6.59,6.59,0,0,0-1-.07" transform="translate(367.13 106.65)"/><path class="cls-22" d="M198,352.61h0c0-16.74,7.06-29.35,16.07-29.35a9.29,9.29,0,0,1,1.56.13c9.74,1.55,17.63,17.45,17.63,35.5h0a49.82,49.82,0,0,1-2.75,17h0L215.6,417.64l-14.74-46.88-.15-.45h0a57.31,57.31,0,0,1-2.76-17.7h0m-12.63-60.93h0c-2.66,0-5.15,1.88-7,5.18a27.7,27.7,0,0,0-3,13.24v99.77a34.54,34.54,0,0,0,3.31,15c2,4.11,4.82,6.93,7.72,7.57l58.69,13.23a6,6,0,0,0,1.25.14h0c2.55,0,4.92-1.85,6.68-5.15a28.94,28.94,0,0,0,2.86-13.39V322.81a35.56,35.56,0,0,0-3.31-15.43c-2-4.12-4.81-6.79-7.68-7.19l-58.69-8.45a5.93,5.93,0,0,0-.84-.06" transform="translate(367.13 106.65)"/><path class="cls-23" d="M175.34,310.1h0a27.7,27.7,0,0,1,3-13.24c1.85-3.3,4.34-5.18,7-5.18h0a5.93,5.93,0,0,1,.84.06l58.69,8.45c2.87.4,5.65,3.07,7.68,7.19a35.56,35.56,0,0,1,3.31,15.43V427.29h0A28.94,28.94,0,0,1,253,440.68c-1.76,3.3-4.13,5.15-6.68,5.15h0a6,6,0,0,1-1.25-.14l-58.69-13.23c-2.9-.64-5.69-3.46-7.72-7.57a34.54,34.54,0,0,1-3.31-15V310.1m10-19.47c-3.2,0-6,2.23-7.92,5.71a28.59,28.59,0,0,0-3.13,13.76h0v99.77a35.72,35.72,0,0,0,3.41,15.49c2.12,4.26,5.05,7.35,8.44,8.13l58.69,13.22h0a6.23,6.23,0,0,0,1.48.17c3.1,0,5.77-2.22,7.62-5.7a30,30,0,0,0,3-13.89h0V322.81a36.63,36.63,0,0,0-3.41-15.9c-2.12-4.27-5.06-7.25-8.48-7.76l-58.69-8.45a6.59,6.59,0,0,0-1-.07" transform="translate(367.13 106.65)"/><path class="cls-23" d="M205.56,354h0c0-9.54,4-16.71,9.11-16.71a5.84,5.84,0,0,1,.93.08c5.54.93,10,10,10,20.21h0c0,8-2.78,14.38-6.67,16.2a5.44,5.44,0,0,1-2.34.53,5.21,5.21,0,0,1-1-.1,7.38,7.38,0,0,1-3.38-1.7c-3.88-3.26-6.66-10.55-6.66-18.51h0m8.48-30.7c-9,0-16.07,12.61-16.07,29.35h0a57.31,57.31,0,0,0,2.76,17.7h0l.15.45,14.74,46.88,14.89-41.74h0a49.82,49.82,0,0,0,2.75-17h0c0-18.05-7.89-33.95-17.63-35.5a9.29,9.29,0,0,0-1.56-.13" transform="translate(367.13 106.65)"/><path class="cls-24" d="M214.67,337.25c-5.11,0-9.11,7.17-9.11,16.71h0c0,8,2.78,15.25,6.66,18.51a7.38,7.38,0,0,0,3.38,1.7,5.21,5.21,0,0,0,1,.1,5.44,5.44,0,0,0,2.34-.53c3.89-1.82,6.67-8.15,6.67-16.2h0c0-10.23-4.5-19.28-10-20.21a5.84,5.84,0,0,0-.93-.08" transform="translate(367.13 106.65)"/><path class="cls-23" d="M316.34,516.27l-2.52,5.92c.72,1.12,1.42,2.31,2.1,3.54h0l2.51-5.89-.33-.61-.52-.92-.21-.37-.11-.18,0,0-.29-.48-.21-.35-.39-.61" transform="translate(367.13 106.65)"/><path class="cls-23" d="M320.77,505.87l-2.36,5.56c.71,1.15,1.41,2.34,2.08,3.58h0l2.37-5.55c-.68-1.24-1.37-2.44-2.09-3.59" transform="translate(367.13 106.65)"/><path class="cls-23" d="M409.76,297.05l-2.85,6.69L392.33,338l-.63,1.47-8.46,19.86-3.55,8.33-6.38,15-1.69,4-1,2.45-1.69,4-7.22,16.94-2,4.8-1.28,3-2.07,4.85-5.66,13.28-6.38,15-7.23,17-1.32,3.09-14.49,34c.71,1.15,1.41,2.35,2.08,3.59h0l14.51-34,1.32-3.1,7.22-17,6.38-15,5.67-13.3,2.06-4.84,1.28-3,2.06-4.85,7.2-16.88,1.69-4,1-2.44,1.68-3.94,6.38-15,3.54-8.31L393.77,343l.62-1.47,13.85-32.49a69.11,69.11,0,0,1,1.52-12" transform="translate(367.13 106.65)"/><path class="cls-25" d="M410.57,295.13l-.81,1.92a69.11,69.11,0,0,0-1.52,12l.69-1.63.38-.88c0-.43,0-.86,0-1.28a40.92,40.92,0,0,1,1.28-10.16" transform="translate(367.13 106.65)"/><path class="cls-26" d="M411.12,293.84l-.55,1.29a40.92,40.92,0,0,0-1.28,10.16c0,.42,0,.85,0,1.28l4.87-11.43-3.06-1.3" transform="translate(367.13 106.65)"/><path class="cls-23" d="M313.41,523.16l-6,14.06c.74,1.08,1.45,2.24,2.13,3.47h0l6-14q-1-1.86-2.1-3.54" transform="translate(367.13 106.65)"/><path class="cls-27" d="M294.18,528.55c-11.92,0-21.44,19.3-21.44,44,0,25.28,10,46.82,22.38,48.09a10.88,10.88,0,0,0,1.14.06c11.83,0,21.24-19.22,21.24-44,0-14.17-3.09-27.11-7.95-36h0l-4.37,10.24c3.44,6.35,5.55,15.53,5.58,25.13h0c0,1.66-.07,3.3-.19,4.93-1,13.09-6,23.46-12.36,25.43a7.39,7.39,0,0,1-2.26.35c-5.67,0-11.21-6.42-14.21-16.81a61.63,61.63,0,0,1-2.23-16.78h0A54,54,0,0,1,283.06,553c2.86-6.85,7.1-10.59,11.47-10.59a9.28,9.28,0,0,1,6,2.46,17.48,17.48,0,0,1,2.47,2.64h0l4.4-10.33c-3.53-5.1-7.76-8.25-12.3-8.63-.31,0-.62,0-.94,0" transform="translate(367.13 106.65)"/><path class="cls-15" d="M307.42,537.22h0L303,547.55a25.79,25.79,0,0,1,2.16,3.38h0l4.37-10.24c-.68-1.23-1.39-2.39-2.13-3.47h0" transform="translate(367.13 106.65)"/><path class="cls-18" d="M294.54,543.08c-5.07,0-9.88,5.22-12.56,14.1a55.79,55.79,0,0,0-2.16,15.89,57.71,57.71,0,0,0,3.51,20.49c3.11,8,7.86,12.55,12.61,12.55a8.09,8.09,0,0,0,4.4-1.36c6-3.89,10.08-15.55,10.1-28.72,0-1.7-.06-3.4-.19-5.08-.59-7.59-2.52-14.5-5.27-19.53l-9.12,21.39-3.05-1.31,10-23.45a14,14,0,0,0-4.6-4.06,8,8,0,0,0-3.66-.91" transform="translate(367.13 106.65)"/><path class="cls-15" d="M302.8,548.05h0l-10,23.45,3.05,1.31L305,551.42a24.79,24.79,0,0,0-2.18-3.37" transform="translate(367.13 106.65)"/><path class="cls-27" d="M293.49,484.91a22.65,22.65,0,0,0-10.36,2.58c-8.45,4.3-16.07,14-21.65,27.35-5.7,13.61-9.16,30.8-9.83,48.92a173.37,173.37,0,0,0,6.17,53.41c4.56,15.8,11.39,28.94,19.41,37.19,6.37,6.58,13.38,10,20.33,10a21.67,21.67,0,0,0,6.3-.94c8.64-2.65,16.65-10.95,22.75-23.46s10.26-29.38,11.6-47.49c.34-4.54.5-9.15.51-13.77,0-18.75-2.84-37.48-8.09-53.16a106.33,106.33,0,0,0-7.35-17.06h0l-.42,1c1.14,2.09,2.24,4.3,3.28,6.63,6,13.56,10.06,30.72,11.41,48.74.34,4.58.5,9.19.5,13.79,0,18.42-2.78,36.25-7.92,50.73-5,14.07-12.17,24.61-20.3,29.82a22.9,22.9,0,0,1-12.37,3.8,24.67,24.67,0,0,1-14.16-4.82c-8.29-5.78-15.76-16.65-21.27-30.8-5.62-14.41-9-32.05-9.72-50-.67-18.23,1.44-36.4,6.09-51.59,4.48-14.69,11.18-26.29,19-33,5.07-4.32,10.57-6.5,16.11-6.5a22.82,22.82,0,0,1,10.13,2.46c6.19,3.06,12.05,9,17.09,17.13h0l.43-1a54.15,54.15,0,0,0-11.07-13.3c-5.31-4.42-11-6.66-16.64-6.66" transform="translate(367.13 106.65)"/><path class="cls-15" d="M321.2,504.87h0l-.43,1h0c.72,1.15,1.41,2.35,2.09,3.59l.42-1c-.67-1.24-1.37-2.44-2.08-3.59h0" transform="translate(367.13 106.65)"/><path class="cls-27" d="M293.62,493.73a20.26,20.26,0,0,0-9.28,2.31c-7.59,3.84-14.5,12.5-19.51,24.56-5.16,12.39-8.27,27.82-8.9,44.29a156.14,156.14,0,0,0,5.53,48c4.06,14.14,10.17,26,17.33,33.43,5.82,6,12.19,9.17,18.53,9.17a19.6,19.6,0,0,0,5.74-.87c7.76-2.38,15-9.92,20.47-21.18s9.21-26.29,10.41-42.48c.31-4.18.48-8.39.48-12.65v0c0-16.73-2.51-33.57-7.2-47.59A96.39,96.39,0,0,0,320.49,515h0l-2.06,4.83c.27.49.53,1,.79,1.5.7,1.36,1.38,2.78,2,4.24s1.22,2.84,1.8,4.32l.42,1.12.17.45v0l.07.19v0l0,.08,0-.06,0,.05c.3.85.6,1.7.88,2.56,1.07,3.23,2,6.62,2.85,10.12.21.86.4,1.73.59,2.6.1.44.19.88.28,1.32l.11.54v0l.1.53q.53,2.76,1,5.58c.59,3.86,1,7.81,1.33,11.79,0,.37.05.75.08,1.13l0,.31c0,.3,0,.59.05.88,0,1,.1,2,.13,3,.08,2,.11,4,.11,6s0,4.18-.12,6.26c0,1-.08,2-.14,2.92l0,.58V588c0,.58-.08,1.15-.13,1.72-.3,3.87-.75,7.67-1.34,11.37q-.44,2.73-1,5.38l-.07.37-.09.39c-.09.42-.18.84-.28,1.26-.19.88-.4,1.75-.62,2.61-.85,3.38-1.82,6.62-2.91,9.67-.25.7-.5,1.38-.76,2.06l-.05.13,0,.08-.17.42-.51,1.24c-.6,1.44-1.24,2.83-1.89,4.16s-1.28,2.49-1.95,3.66c-.33.59-.67,1.16-1,1.72l-.52.83-.32.48-.05.09,0,.07a45.36,45.36,0,0,1-4.65,5.77c-.84.86-1.69,1.65-2.56,2.38l-.62.5-.13.1-.05,0-.07.05-.13.1c-.46.34-.93.66-1.4,1a22.38,22.38,0,0,1-5.48,2.55c-.46.13-.92.25-1.39.35-.23.06-.46.1-.7.14l-.48.07a18.66,18.66,0,0,1-2.35.15h-.58a19.64,19.64,0,0,1-6-1.14l-.25-.09-.17-.07-.62-.26c-.51-.22-1-.47-1.53-.73a27.67,27.67,0,0,1-2.84-1.73,32,32,0,0,1-2.69-2.09c-.41-.36-.82-.72-1.22-1.1l-.25-.25-.12-.12c-.25-.25-.5-.5-.75-.77a49.07,49.07,0,0,1-4.87-6c-.77-1.11-1.51-2.27-2.24-3.48l-.13-.22-.26-.46c-.18-.31-.35-.62-.52-.93-.38-.69-.76-1.39-1.13-2.11a91.49,91.49,0,0,1-3.82-8.56c-.14-.37-.29-.74-.43-1.12l-.16-.45-.05-.12,0-.09q-.43-1.2-.84-2.43c-.54-1.6-1-3.24-1.52-4.91s-1-3.46-1.38-5.24c-.2-.86-.4-1.71-.59-2.58l-.27-1.3-.06-.27-.13-.64c-.72-3.69-1.3-7.47-1.74-11.31-.23-1.93-.41-3.87-.56-5.81l-.09-1.3v-.27c0-.2,0-.39,0-.58-.06-1.07-.11-2.13-.15-3.2-.15-4-.14-8.07,0-12.07,0-1,.09-1.92.14-2.88l0-.55v-.29l.12-1.7c.16-2,.36-3.91.59-5.83.45-3.71,1.05-7.31,1.76-10.82l0-.08v0c0-.21.09-.42.13-.63.09-.41.19-.83.28-1.25.21-.9.43-1.8.66-2.69q.61-2.43,1.32-4.74t1.56-4.72c.24-.66.48-1.31.73-2l.08-.19c.08-.21.16-.42.25-.63.15-.38.31-.76.47-1.13a71.56,71.56,0,0,1,3.9-7.89c.33-.59.67-1.16,1-1.72.17-.28.35-.55.53-.83l.21-.32.07-.11.08-.13c.74-1.08,1.5-2.11,2.27-3.08a37.93,37.93,0,0,1,4.88-5.11l.63-.52.25-.2h0l.12-.09c.47-.36.94-.69,1.41-1a23.57,23.57,0,0,1,2.77-1.6,20.87,20.87,0,0,1,2.71-1.11c.46-.15.92-.28,1.39-.4l.69-.16h.14l.42-.07a18.65,18.65,0,0,1,5.9,0,20.47,20.47,0,0,1,3,.73l.13.05.28.1c.24.08.47.18.7.27.49.2,1,.42,1.45.67a27.6,27.6,0,0,1,5.53,3.69c.43.36.86.74,1.28,1.13l.05,0,.32.31.69.69q1.26,1.32,2.49,2.82t2.43,3.24c.38.55.75,1.11,1.12,1.68l.16.25h0l2.07-4.84a49,49,0,0,0-9.88-11.76c-4.75-3.95-9.85-5.93-14.91-5.94" transform="translate(367.13 106.65)"/><path class="cls-15" d="M318.41,511.43h0l-2.07,4.84h0l.39.61.21.35.29.48,0,0,.11.18.21.37.52.92.33.61,2.06-4.83c-.67-1.24-1.37-2.43-2.08-3.58h0" transform="translate(367.13 106.65)"/><path class="cls-18" d="M293.72,506.17a17.65,17.65,0,0,0-9.89,3.17,30.8,30.8,0,0,0-7.18,6.84,4.55,4.55,0,0,0-.57,3.38h0a28.93,28.93,0,0,1,10.2-9.42,16.68,16.68,0,0,1,7.56-1.86c4.19,0,8.41,1.66,12.35,5a37.14,37.14,0,0,1,6.41,7.13h0a4.44,4.44,0,0,0-.57-3.32c-5.53-7.15-11.95-10.88-18.31-10.88" transform="translate(367.13 106.65)"/><path class="cls-18" d="M293.89,509.6a18.16,18.16,0,0,0-11.81,4.76,33.85,33.85,0,0,0-5.63,6.3,1.29,1.29,0,0,0,1,.78.77.77,0,0,0,.6-.34c4.77-6.14,10.32-9.33,16-9.33a17.22,17.22,0,0,1,9.84,3.3,31.28,31.28,0,0,1,6.84,6.71,1,1,0,0,0,.73.47c.34,0,.64-.31.87-.78-3.3-4.67-7-8.1-10.85-10a16.77,16.77,0,0,0-7.52-1.84" transform="translate(367.13 106.65)"/><path class="cls-27" d="M322.11,543.19a4.71,4.71,0,0,0-.25,3.32,127.8,127.8,0,0,1,2.9,46.27A107.28,107.28,0,0,1,322.57,605a5.58,5.58,0,0,0,.28,3.55h0a120.71,120.71,0,0,0,3.86-31c0-3.4-.12-6.81-.38-10.19a121.85,121.85,0,0,0-4.22-24.17" transform="translate(367.13 106.65)"/><path class="cls-27" d="M323.07,542.4l-.41.13a129.91,129.91,0,0,1,4.69,35.08h0q0,5.14-.38,10.19a114.42,114.42,0,0,1-3.56,21.37l.41.11c.45,0,.89-.42,1.1-1.26a137.44,137.44,0,0,0,2-50.68,123.21,123.21,0,0,0-2.73-13.46c-.27-1-.7-1.48-1.13-1.48" transform="translate(367.13 106.65)"/><path class="cls-27" d="M274.41,619.8a.86.86,0,0,0-.67.39c3.62,7.16,8,12.68,12.71,15.95a18.14,18.14,0,0,0,10.32,3.48,16.82,16.82,0,0,0,9.18-2.85,25.78,25.78,0,0,0,5-4.32c-.28-.65-.67-1-1.07-1a.91.91,0,0,0-.62.29c-3.92,3.8-8.24,5.69-12.6,5.69-5.12,0-10.29-2.61-14.92-7.75a48.55,48.55,0,0,1-6.28-9c-.31-.57-.69-.89-1.07-.89" transform="translate(367.13 106.65)"/><path class="cls-27" d="M273.32,621.14a5.19,5.19,0,0,0,.24,3.28c3.8,7,8.25,12.29,13.06,15.41a18.8,18.8,0,0,0,10.26,3.24,16.87,16.87,0,0,0,5.41-.9,22.65,22.65,0,0,0,8.36-5.43,4.2,4.2,0,0,0,.62-3.11,22.56,22.56,0,0,1-9.69,6.59,16,16,0,0,1-4.73.72c-5.12,0-10.28-2.5-15-7.33a50.43,50.43,0,0,1-8.56-12.47" transform="translate(367.13 106.65)"/><path class="cls-18" d="M268.92,532c-.45,0-.87.48-1.15,1.27-5.65,16.1-7.37,37.38-4.64,57.06a122.2,122.2,0,0,0,3.26,15.86c.29,1,.73,1.46,1.16,1.46l.41-.13c-.13-.44-.27-.89-.4-1.34a127.2,127.2,0,0,1-4.67-34.73h0c0-1.69,0-3.37.09-5.05.48-12.53,2.76-24.44,6.49-34.15l-.55-.25" transform="translate(367.13 106.65)"/><path class="cls-18" d="M270,533.11c-.68,1.76-1.31,3.61-1.9,5.52a116.26,116.26,0,0,0-4.55,33.15c0,1.62,0,3.24.09,4.87a121.3,121.3,0,0,0,4.89,30.28h0a4.53,4.53,0,0,0,.23-3.27,124.72,124.72,0,0,1-2.14-54.22,92.12,92.12,0,0,1,3.52-13.13,5.15,5.15,0,0,0-.14-3.2" transform="translate(367.13 106.65)"/><path class="cls-18" d="M315.92,525.73h0l-.41,1c.86,1.57,1.69,3.24,2.47,5a88.43,88.43,0,0,1,4.13,11.5h0a1.69,1.69,0,0,1,.55-.66c-.4-1.37-.81-2.72-1.25-4a79.61,79.61,0,0,0-5.49-12.76h0" transform="translate(367.13 106.65)"/><path class="cls-18" d="M276.08,519.56h0a55.85,55.85,0,0,0-5.84,10.79c-.26.64-.52,1.28-.77,1.93l.16.18a2.63,2.63,0,0,1,.35.65h0a57.83,57.83,0,0,1,6.47-12.45,3.5,3.5,0,0,1-.28-.71l-.09-.39" transform="translate(367.13 106.65)"/><path class="cls-18" d="M312.6,520.37h0a4.59,4.59,0,0,1-.34,1.1c.39.55.77,1.11,1.15,1.69h0l.41-1c-.4-.62-.81-1.23-1.22-1.82h0" transform="translate(367.13 106.65)"/><path class="cls-15" d="M313.82,522.19h0l-.41,1h0q1.08,1.68,2.1,3.54l.41-1c-.68-1.23-1.38-2.42-2.1-3.54h0" transform="translate(367.13 106.65)"/><path class="cls-27" d="M268.51,606.93h0a1.7,1.7,0,0,1-.55.62,86.47,86.47,0,0,0,5.36,13.59h0a4,4,0,0,1,.24-.65l.18-.3c-1.07-2.12-2.07-4.39-3-6.79q-1.22-3.1-2.23-6.47h0" transform="translate(367.13 106.65)"/><path class="cls-27" d="M322.85,608.5h0c-.59,2.18-1.24,4.27-2,6.29-2.61,7.34-6,13.39-9.92,17.66l.17.51a4.67,4.67,0,0,1,.13.67h0a45.37,45.37,0,0,0,7.16-10.86,78.93,78.93,0,0,0,5-13.6l-.35-.33-.21-.34" transform="translate(367.13 106.65)"/><path class="cls-28" d="M293.84,508.28a16.68,16.68,0,0,0-7.56,1.86,28.93,28.93,0,0,0-10.2,9.42h0l.09.39a3.5,3.5,0,0,0,.28.71,33.85,33.85,0,0,1,5.63-6.3,18.16,18.16,0,0,1,11.81-4.76,16.77,16.77,0,0,1,7.52,1.84c3.87,1.93,7.55,5.36,10.85,10a4.59,4.59,0,0,0,.34-1.1h0a37.14,37.14,0,0,0-6.41-7.13c-3.94-3.3-8.16-5-12.35-5" transform="translate(367.13 106.65)"/><path class="cls-27" d="M322.66,542.53h0a1.69,1.69,0,0,0-.55.66h0a121.85,121.85,0,0,1,4.22,24.17c.26,3.38.38,6.79.38,10.19h0a120.71,120.71,0,0,1-3.86,31h0l.21.34.35.33A114.42,114.42,0,0,0,327,587.8q.38-5,.38-10.19h0a129.91,129.91,0,0,0-4.69-35.08h0" transform="translate(367.13 106.65)"/><path class="cls-27" d="M273.74,620.19h0l-.18.3a4,4,0,0,0-.24.65h0a50.43,50.43,0,0,0,8.56,12.47c4.69,4.83,9.85,7.33,15,7.33a16,16,0,0,0,4.73-.72,22.56,22.56,0,0,0,9.69-6.59h0a4.67,4.67,0,0,0-.13-.67l-.17-.51h0a25.78,25.78,0,0,1-5,4.32,16.82,16.82,0,0,1-9.18,2.85,18.14,18.14,0,0,1-10.32-3.48c-4.73-3.27-9.09-8.79-12.71-15.95h0" transform="translate(367.13 106.65)"/><path class="cls-28" d="M269.47,532.28h0c-3.73,9.71-6,21.62-6.49,34.15-.06,1.68-.09,3.36-.09,5.05h0a127.2,127.2,0,0,0,4.67,34.73c.13.45.27.9.4,1.34a1.7,1.7,0,0,0,.55-.62h0a121.3,121.3,0,0,1-4.89-30.28c-.06-1.63-.09-3.25-.09-4.87h0a116.26,116.26,0,0,1,4.55-33.15c.59-1.91,1.22-3.76,1.9-5.52h0a2.63,2.63,0,0,0-.35-.65l-.16-.18" transform="translate(367.13 106.65)"/><path class="cls-28" d="M294.53,542.45c-4.37,0-8.61,3.74-11.47,10.59a54,54,0,0,0-3.55,20.14h0A61.63,61.63,0,0,0,281.74,590c3,10.39,8.54,16.81,14.21,16.81a7.39,7.39,0,0,0,2.26-.35c6.34-2,11.39-12.34,12.36-25.43.12-1.63.18-3.27.19-4.93h0c0-9.6-2.14-18.78-5.58-25.13h0l-.2.49c2.75,5,4.68,11.94,5.27,19.53.13,1.68.19,3.38.19,5.08h0c0,13.17-4.08,24.83-10.1,28.72a8.09,8.09,0,0,1-4.4,1.36c-4.75,0-9.5-4.55-12.61-12.55a57.71,57.71,0,0,1-3.51-20.49h0A55.79,55.79,0,0,1,282,557.18c2.68-8.88,7.49-14.1,12.56-14.1a8,8,0,0,1,3.66.91,14,14,0,0,1,4.6,4.06h0l.22-.5a17.48,17.48,0,0,0-2.47-2.64,9.28,9.28,0,0,0-6-2.46" transform="translate(367.13 106.65)"/><path class="cls-29" d="M303,547.55h0l-.22.5h0a24.79,24.79,0,0,1,2.18,3.37l.2-.49a25.79,25.79,0,0,0-2.16-3.38h0" transform="translate(367.13 106.65)"/><path class="cls-30" d="M201.93,578.24" transform="translate(367.13 106.65)"/><path class="cls-30" d="M201.93,578.24" transform="translate(367.13 106.65)"/></svg>